<svg id="Configure_default" data-name="Configure default" xmlns="http://www.w3.org/2000/svg" width="23.267" height="25" viewBox="0 0 23.267 25">
  <path id="Combined-Shape" d="M12.387,1a3.209,3.209,0,0,1,3.213,3.3,1.289,1.289,0,0,0,.182.615,1.391,1.391,0,0,0,1.91.5A3.222,3.222,0,0,1,22.084,6.6l.752,1.3a1.025,1.025,0,0,1,.051.1,3.225,3.225,0,0,1-1.219,4.277,1.378,1.378,0,0,0-.512.508,1.416,1.416,0,0,0-.145,1.065,1.377,1.377,0,0,0,.652.848,3.2,3.2,0,0,1,1.17,4.388l-.8,1.334a3.215,3.215,0,0,1-4.376,1.157,1.436,1.436,0,0,0-.673-.187h-.007a1.4,1.4,0,0,0-.968.408,1.379,1.379,0,0,0-.407.991A3.221,3.221,0,0,1,12.387,26H10.876a3.217,3.217,0,0,1-3.214-3.213,1.3,1.3,0,0,0-.182-.642,1.381,1.381,0,0,0-1.9-.52,3.213,3.213,0,0,1-4.4-1.237l-.754-1.3A3.207,3.207,0,0,1,1.6,14.716a1.4,1.4,0,0,0,0-2.431A3.219,3.219,0,0,1,.427,7.9l.818-1.343a3.211,3.211,0,0,1,4.37-1.165,1.321,1.321,0,0,0,.666.189A1.407,1.407,0,0,0,7.674,4.2a3.2,3.2,0,0,1,3.2-3.2Zm0,1.81H10.876a1.388,1.388,0,0,0-1.392,1.4A3.23,3.23,0,0,1,6.27,7.393,3.113,3.113,0,0,1,4.7,6.956a1.405,1.405,0,0,0-1.9.526L1.985,8.825a1.4,1.4,0,0,0,.521,1.894,3.213,3.213,0,0,1,0,5.564A1.394,1.394,0,0,0,2,18.184L2.757,19.5a1.407,1.407,0,0,0,1.923.56,3.2,3.2,0,0,1,2.419-.32,3.219,3.219,0,0,1,1.944,1.5,3.093,3.093,0,0,1,.428,1.544,1.407,1.407,0,0,0,1.4,1.413h1.512a1.405,1.405,0,0,0,1.4-1.4,3.2,3.2,0,0,1,3.218-3.208,3.286,3.286,0,0,1,1.547.427,1.412,1.412,0,0,0,1.918-.508l.8-1.336a1.394,1.394,0,0,0-.514-1.9,3.181,3.181,0,0,1-1.5-1.952,3.222,3.222,0,0,1,.327-2.436,3.184,3.184,0,0,1,1.172-1.169,1.407,1.407,0,0,0,.5-1.9.673.673,0,0,1-.042-.083L20.516,7.5A1.406,1.406,0,0,0,18.6,6.986,3.2,3.2,0,0,1,14.225,5.84a3.081,3.081,0,0,1-.433-1.552,1.439,1.439,0,0,0-.4-1.054A1.409,1.409,0,0,0,12.387,2.81Zm-.751,6.6A4.085,4.085,0,1,1,7.552,13.5,4.091,4.091,0,0,1,11.637,9.415Zm0,1.81A2.275,2.275,0,1,0,13.912,13.5,2.279,2.279,0,0,0,11.637,11.225Z" transform="translate(0 -1.001)" fill="#833064" fill-rule="evenodd"/>
</svg>
