<svg id="Configure_hover" data-name="Configure hover" xmlns="http://www.w3.org/2000/svg" width="23.75" height="25" viewBox="0 0 23.75 25">
  <ellipse id="Ellipse_2" data-name="Ellipse 2" cx="4.5" cy="5" rx="4.5" ry="5" transform="translate(7.4 7.5)" fill="#ffe592"/>
  <g id="Iconly_Bold_Setting" data-name="Iconly/Bold/Setting" transform="translate(-2.5 -2)">
    <g id="Setting" transform="translate(2.5 2)">
      <path id="Path_6488" data-name="Path 6488" d="M12.771,0a2.69,2.69,0,0,1,2.274,1.3,2.222,2.222,0,0,1,.345,1.325,1.933,1.933,0,0,0,.294,1.1,2.466,2.466,0,0,0,3.219.862,2.64,2.64,0,0,1,3.59.95h0l.856,1.475A2.534,2.534,0,0,1,22.4,10.55a2.277,2.277,0,0,0-.818,3.125,1.934,1.934,0,0,0,.792.8,2.877,2.877,0,0,1,1.035.988,2.523,2.523,0,0,1-.026,2.562h0l-.894,1.5a2.621,2.621,0,0,1-3.615.925,2.038,2.038,0,0,0-1.124-.287,2.386,2.386,0,0,0-2.363,2.275A2.585,2.585,0,0,1,12.746,25H11.009a2.588,2.588,0,0,1-2.657-2.562A2.365,2.365,0,0,0,6,20.163a1.983,1.983,0,0,0-1.124.287,2.7,2.7,0,0,1-1.354.375,2.667,2.667,0,0,1-2.274-1.3h0l-.881-1.5a2.493,2.493,0,0,1-.026-2.562,2.648,2.648,0,0,1,1.022-.988,2.043,2.043,0,0,0,.8-.8,2.292,2.292,0,0,0-.83-3.125A2.555,2.555,0,0,1,.393,7.013h0l.856-1.475a2.656,2.656,0,0,1,3.6-.95,2.454,2.454,0,0,0,3.206-.862,1.932,1.932,0,0,0,.294-1.1A2.231,2.231,0,0,1,8.709,1.3,2.743,2.743,0,0,1,10.97,0h1.8ZM11.89,8.975a3.533,3.533,0,1,0,0,7.062,3.532,3.532,0,1,0,0-7.062Z" fill="#6f2754"/>
    </g>
  </g>
</svg>
