<svg id="Event_booking_successful" data-name="Event booking successful" xmlns="http://www.w3.org/2000/svg" width="49.487" height="49.487" viewBox="0 0 49.487 49.487">
  <g id="Tick-Square" transform="translate(0 0)">
    <path id="Path_6541" data-name="Path 6541" d="M35.482,0c8.388,0,14,5.889,14,14.648h0V34.866c0,8.732-5.617,14.621-14,14.621H14.03C5.642,49.487,0,43.6,0,34.866H0V14.648C0,5.889,5.642,0,14.03,0H35.482Zm-.4,17.32a2.18,2.18,0,0,0-3.068,0h0L21.8,27.539l-4.33-4.33A2.17,2.17,0,0,0,14.4,26.278h0l5.889,5.864a2.181,2.181,0,0,0,3.043,0h0L35.086,20.389A2.18,2.18,0,0,0,35.086,17.32Z" transform="translate(0 0)" fill="#3d825a"/>
  </g>
</svg>
