<svg xmlns="http://www.w3.org/2000/svg" xmlns:xlink="http://www.w3.org/1999/xlink" width="23" height="23" viewBox="0 0 23 23">
  <defs>
    <filter id="Fill-1" x="0" y="0" width="23" height="23" filterUnits="userSpaceOnUse">
      <feOffset dy="2" input="SourceAlpha"/>
      <feGaussianBlur stdDeviation="1" result="blur"/>
      <feFlood flood-opacity="0.161"/>
      <feComposite operator="in" in2="blur"/>
      <feComposite in="SourceGraphic"/>
    </filter>
  </defs>
  <g id="Registered" transform="translate(1 -1)">
    <g id="Tick-Square" transform="translate(2 2)">
      <g transform="matrix(1, 0, 0, 1, -3, -1)" filter="url(#Fill-1)">
        <path id="Fill-1-2" data-name="Fill-1" d="M12.189,0H4.819A4.667,4.667,0,0,0,0,5.032v6.945A4.665,4.665,0,0,0,4.819,17h7.37A4.658,4.658,0,0,0,17,11.977V5.032C17,2.023,15.071,0,12.189,0" transform="translate(3 1)" fill="#008c1c" opacity="0.3"/>
      </g>
      <path id="Fill-4" d="M8.813,13.248a.872.872,0,0,1-.619-.256L5.821,10.619A.875.875,0,0,1,7.058,9.381l1.755,1.755,4.128-4.128a.875.875,0,0,1,1.237,1.238L9.432,12.992a.872.872,0,0,1-.619.256" transform="translate(-1.5 -1.5)" fill="#008c1c"/>
    </g>
  </g>
</svg>
