<svg xmlns="http://www.w3.org/2000/svg" xmlns:xlink="http://www.w3.org/1999/xlink" width="27.25" height="23" viewBox="0 0 27.25 23">
  <defs>
    <filter id="Fill-1" x="0" y="0.001" width="18.485" height="22.999" filterUnits="userSpaceOnUse">
      <feOffset dy="2" input="SourceAlpha"/>
      <feGaussianBlur stdDeviation="1" result="blur"/>
      <feFlood flood-opacity="0.161"/>
      <feComposite operator="in" in2="blur"/>
      <feComposite in="SourceGraphic"/>
    </filter>
    <filter id="Fill-4" x="12.485" y="0" width="14.765" height="23" filterUnits="userSpaceOnUse">
      <feOffset dy="2" input="SourceAlpha"/>
      <feGaussianBlur stdDeviation="1" result="blur-2"/>
      <feFlood flood-opacity="0.161"/>
      <feComposite operator="in" in2="blur-2"/>
      <feComposite in="SourceGraphic"/>
    </filter>
  </defs>
  <g id="Ticket" transform="translate(3 1)">
    <g transform="matrix(1, 0, 0, 1, -3, -1)" filter="url(#Fill-1)">
      <path id="Fill-1-2" data-name="Fill-1" d="M12.485,6.059V3.913a.766.766,0,0,1-.771-.749V.609A.613.613,0,0,0,11.087,0H4.028A3.978,3.978,0,0,0,0,3.913V6.5a.738.738,0,0,0,.226.53.785.785,0,0,0,.545.219A1.292,1.292,0,0,1,2.148,8.494,1.354,1.354,0,0,1,.781,9.832.736.736,0,0,0,0,10.54V13.1A3.967,3.967,0,0,0,4.018,17h7.07a.615.615,0,0,0,.627-.609V14.234a.76.76,0,0,1,.771-.749V11.549a.766.766,0,0,1-.771-.749V6.808a.766.766,0,0,1,.771-.749" transform="translate(3 1)" fill="#caecf8" opacity="0.85"/>
    </g>
    <g transform="matrix(1, 0, 0, 1, -3, -1)" filter="url(#Fill-4)">
      <path id="Fill-4-2" data-name="Fill-4" d="M18.368,8.495a1.362,1.362,0,0,0,1.367,1.338.734.734,0,0,1,.781.7V13.1A3.961,3.961,0,0,1,16.5,17h-3.35a.621.621,0,0,1-.627-.61V14.234a.753.753,0,0,0-.771-.749V11.55a.759.759,0,0,0,.771-.749V6.809a.758.758,0,0,0-.771-.749V3.913a.759.759,0,0,0,.771-.749V.61A.621.621,0,0,1,13.148,0H16.5a3.961,3.961,0,0,1,4.018,3.9V6.418a.736.736,0,0,1-.226.529.781.781,0,0,1-.545.22,1.357,1.357,0,0,0-1.377,1.328" transform="translate(3.73 1)" fill="#8cc2d6"/>
    </g>
  </g>
</svg>
