<svg id="Iconly_Bulk_Calendar" data-name="Iconly/Bulk/Calendar" xmlns="http://www.w3.org/2000/svg" width="15.954" height="17.727" viewBox="0 0 15.954 17.727">
  <g id="Calendar" transform="translate(0 0)">
    <path id="Fill-1" d="M11.567,15.086a.751.751,0,0,1-.727-.753.737.737,0,0,1,.718-.752h.009a.753.753,0,0,1,0,1.506ZM7.994,11.824a.728.728,0,0,1-.753-.708.759.759,0,0,1,.718-.763.736.736,0,0,1,.035,1.471Zm0,3.217a.728.728,0,0,1-.753-.709.758.758,0,0,1,.718-.762.736.736,0,0,1,.035,1.471ZM4.4,11.824a.728.728,0,0,1-.753-.708.759.759,0,0,1,.718-.763A.736.736,0,0,1,4.4,11.824Zm-.009,3.217a.728.728,0,0,1-.753-.709.758.758,0,0,1,.718-.762.736.736,0,0,1,.035,1.471Zm6.462-3.934a.723.723,0,1,1,1.445-.035.723.723,0,1,1-1.445.044ZM0,7.257V14a4.233,4.233,0,0,0,4.544,4.547H11.4a4.2,4.2,0,0,0,4.553-4.493v-6.8Z" transform="translate(0 -0.825)" fill="#8a1a56"/>
    <path id="Fill-4" d="M0,6.6A14.053,14.053,0,0,1,.141,4.716,4.069,4.069,0,0,1,4.029,1.49h7.9a4.112,4.112,0,0,1,3.888,3.226A14.076,14.076,0,0,1,15.951,6.6Z" transform="translate(0 -0.169)" fill="#8a1a56" opacity="0.4"/>
    <path id="Fill-6" d="M5.218,4.068a.662.662,0,0,0,.674-.682V.683a.674.674,0,1,0-1.348,0v2.7a.662.662,0,0,0,.674.682" transform="translate(-0.517 0)" fill="#8a1a56"/>
    <path id="Fill-9" d="M12.608,4.068a.667.667,0,0,0,.674-.682V.683a.674.674,0,1,0-1.348,0v2.7a.662.662,0,0,0,.674.682" transform="translate(-1.357 0)" fill="#8a1a56"/>
  </g>
</svg>
