<svg id="Iconly_Bulk_Location" data-name="Iconly/Bulk/Location" xmlns="http://www.w3.org/2000/svg" width="13.868" height="19.812" viewBox="0 0 13.868 19.812">
  <g id="Location" transform="translate(0 0)">
    <path id="Path_34175" d="M3.5.919a6.88,6.88,0,0,1,6.969.057,7.179,7.179,0,0,1,3.4,6.15,10.322,10.322,0,0,1-3.162,6.649,18.51,18.51,0,0,1-3.327,2.767,1.17,1.17,0,0,1-.4.141.818.818,0,0,1-.387-.116A18.273,18.273,0,0,1,1.8,12.1,9.053,9.053,0,0,1,0,7H0l0-.269A7.007,7.007,0,0,1,3.5.919ZM7.833,4.941a2.34,2.34,0,0,0-2.57.51,2.393,2.393,0,0,0-.514,2.591A2.355,2.355,0,0,0,6.926,9.512a2.328,2.328,0,0,0,1.667-.688,2.4,2.4,0,0,0-.76-3.882Z" transform="translate(0 0)" fill="#8a1a56"/>
    <ellipse id="Ellipse_743" cx="4.849" cy="1.043" rx="4.849" ry="1.043" transform="translate(2.085 17.726)" fill="#8a1a56" opacity="0.4"/>
  </g>
</svg>
