<svg id="Iconly_Bulk_3-User" data-name="Iconly/Bulk/3-User" xmlns="http://www.w3.org/2000/svg" width="20.855" height="15" viewBox="0 0 20.855 15">
  <g id="_3-User" data-name="3-User">
    <path id="Fill-1" d="M10.618,10.54c-3.27,0-6.03.529-6.03,2.568s2.777,2.551,6.03,2.551c3.27,0,6.03-.528,6.03-2.568s-2.777-2.551-6.03-2.551" transform="translate(-0.239 -0.659)" fill="#8a1a56"/>
    <path id="Fill-3" d="M10.73,7.938A3.969,3.969,0,1,0,6.74,3.969a3.966,3.966,0,0,0,3.99,3.969" transform="translate(-0.351 0)" fill="#8a1a56" opacity="0.4"/>
    <path id="Fill-6" d="M19.868,4.937A3.359,3.359,0,0,0,16.622.707a3.436,3.436,0,0,0-.672.068.129.129,0,0,0-.078.046.1.1,0,0,0,.016.1,5.429,5.429,0,0,1,.079,6.2.148.148,0,0,0,.1.229,3.145,3.145,0,0,0,.458.044,3.326,3.326,0,0,0,3.342-2.459" transform="translate(-0.826 -0.044)" fill="#8a1a56" opacity="0.4"/>
    <path id="Fill-8" d="M21.528,10.718A2.614,2.614,0,0,0,19.508,9.5a14.9,14.9,0,0,0-3.074-.266.035.035,0,0,0-.031.024.043.043,0,0,0,.027.045A4.173,4.173,0,0,1,18.947,13.4a.171.171,0,0,0,.192.192c.547-.078,1.953-.378,2.389-1.314a1.784,1.784,0,0,0,0-1.565" transform="translate(-0.854 -0.577)" fill="#8a1a56"/>
    <path id="Fill-11" d="M5.823.775A3.358,3.358,0,0,0,1.906,4.937,3.324,3.324,0,0,0,5.247,7.4a3.254,3.254,0,0,0,.458-.044.148.148,0,0,0,.1-.229,5.426,5.426,0,0,1,.08-6.2A.1.1,0,0,0,5.9.822.123.123,0,0,0,5.823.775" transform="translate(-0.093 -0.044)" fill="#8a1a56" opacity="0.4"/>
    <path id="Fill-13" d="M2.2,9.495A2.612,2.612,0,0,0,.181,10.717a1.781,1.781,0,0,0,0,1.566c.436.935,1.843,1.237,2.389,1.314a.17.17,0,0,0,.191-.193A4.172,4.172,0,0,1,5.279,9.3a.044.044,0,0,0,.026-.046.032.032,0,0,0-.03-.023A14.867,14.867,0,0,0,2.2,9.495" transform="translate(0 -0.577)" fill="#8a1a56"/>
  </g>
</svg>
