<svg xmlns="http://www.w3.org/2000/svg" width="25.047" height="23" viewBox="0 0 25.047 23">
  <g id="star_unfill" data-name="star unfill" opacity="0.75">
    <path id="Path_5424" data-name="Path 5424" d="M136.665,9.2a1.244,1.244,0,0,1-.471.861q-1.818,1.53-3.636,3.057l-1.7,1.426a.2.2,0,0,0-.077.232q.654,2.738,1.3,5.478c.086.367.172.735.266,1.1a1.258,1.258,0,0,1-.479,1.38,1.338,1.338,0,0,1-1.512.064Q127.9,21.4,125.461,20c-.38-.218-.765-.43-1.139-.656a.292.292,0,0,0-.344,0q-2.97,1.709-5.942,3.41a1.445,1.445,0,0,1-1.313.15,1.27,1.27,0,0,1-.783-1.5q.648-2.731,1.3-5.461c.091-.382.173-.768.272-1.147a.208.208,0,0,0-.079-.247q-1.116-.93-2.226-1.867c-1.037-.873-2.078-1.739-3.11-2.618a1.176,1.176,0,0,1-.408-1.339,1.246,1.246,0,0,1,1.134-.895c1.02-.1,2.041-.184,3.061-.273l3.029-.264c.337-.029.673-.062,1.01-.086a.215.215,0,0,0,.207-.148Q121.5,3.959,122.875.873A1.332,1.332,0,0,1,124.157,0a1.28,1.28,0,0,1,1.218.79c.621,1.378,1.234,2.759,1.85,4.139.313.7.627,1.4.935,2.109a.24.24,0,0,0,.233.159q1.216.1,2.433.207l3.542.311c.375.032.751.064,1.125.1A1.313,1.313,0,0,1,136.665,9.2Z" transform="translate(-111.618 0)" fill="#d3d3d3"/>
  </g>
</svg>
