<svg id="star_fill" data-name="star fill" xmlns="http://www.w3.org/2000/svg" width="25.047" height="23" viewBox="0 0 25.047 23">
  <path id="Path_5421" data-name="Path 5421" d="M26.047,9.2a1.239,1.239,0,0,1-.471.861q-1.817,1.53-3.636,3.057-.849.714-1.7,1.426a.2.2,0,0,0-.077.232q.654,2.738,1.3,5.478c.087.367.172.735.266,1.1a1.257,1.257,0,0,1-.479,1.38,1.339,1.339,0,0,1-1.512.064Q17.286,21.4,14.843,20c-.38-.218-.765-.43-1.139-.656a.292.292,0,0,0-.344,0q-2.97,1.709-5.942,3.41a1.445,1.445,0,0,1-1.313.15,1.269,1.269,0,0,1-.783-1.5q.647-2.731,1.3-5.461c.091-.382.173-.768.271-1.147a.207.207,0,0,0-.078-.247q-1.116-.93-2.226-1.867c-1.037-.873-2.078-1.739-3.11-2.618a1.175,1.175,0,0,1-.408-1.339A1.245,1.245,0,0,1,2.2,7.82c1.02-.1,2.041-.184,3.062-.273l3.029-.264c.337-.029.673-.062,1.01-.086a.216.216,0,0,0,.207-.148Q10.881,3.959,12.258.873A1.331,1.331,0,0,1,13.539,0a1.281,1.281,0,0,1,1.219.79c.621,1.378,1.234,2.759,1.849,4.139.313.7.627,1.4.935,2.109a.24.24,0,0,0,.233.159q1.217.1,2.434.207l3.542.311c.375.032.75.064,1.125.1A1.313,1.313,0,0,1,26.047,9.2Z" transform="translate(-1 0)" fill="#ffae2a"/>
</svg>
