<svg id="Footer" xmlns="http://www.w3.org/2000/svg" width="87.353" height="21.182" viewBox="0 0 87.353 21.182">
  <path id="Path_3219" data-name="Path 3219" d="M3501.135,4029.813l1.439-3.906,1.371,3.906Zm4.206,3.934h1.32l-3.422-9.4h-1.3l-3.58,9.4h1.329l1.05-2.883h3.584Zm6.257-1.99c0,.763-.625,1.172-1.683,1.172a1.816,1.816,0,0,1-1.753-.795l-1.268.224a3,3,0,0,0,2.966,1.5c1.964,0,2.992-1.09,2.992-2.247,0-1.49-1.373-1.894-2.952-2.212-.766-.153-1.658-.434-1.658-1.11,0-.482.471-1.041,1.41-1.041a1.8,1.8,0,0,1,1.624.916l1.112-.467a2.777,2.777,0,0,0-2.6-1.367c-1.651,0-2.747.815-2.747,2.112,0,1.47,1.264,1.755,2.485,2.023C3510.581,4030.688,3511.6,4030.948,3511.6,4031.757Zm3.885-7.408-1.236.515v1.737h-1.132v1h1.132v4.591c-.014.93-.014,1.606,1.373,1.606a7.666,7.666,0,0,0,1.161-.121v-.988a3,3,0,0,1-.785.164c-.513,0-.513-.36-.513-1.205V4027.6h1.3v-1h-1.3Zm2.38,2.252v7.146h1.2v-3.287a3.64,3.64,0,0,1,.3-1.856c.39-.63.964-.875,2.141-.884v-1.235a2.573,2.573,0,0,0-2.444,1.395V4026.6Zm10.74-2.247v1.159h5.341l-5.344,7.013v1.221h6.9v-1.127h-5.455l5.318-7.1v-1.168Zm14.414,2.247v7.146h1.2v-4.055a1.971,1.971,0,0,1,.526-1.6,1.868,1.868,0,0,1,1.372-.541,1.508,1.508,0,0,1,1.527.978,3.84,3.84,0,0,1,.078,1.176v4.037h1.194v-4.234a5.192,5.192,0,0,0-.123-1.461,2.351,2.351,0,0,0-2.347-1.635,2.512,2.512,0,0,0-2.227,1.273V4026.6Zm18.623,5.416a1.7,1.7,0,0,1-1.651.933c-.8,0-2.158-.51-2.158-2.863,0-.635.113-2.879,2.083-2.879a1.689,1.689,0,0,1,1.668,1.006l1.123-.467a3.2,3.2,0,0,0-2.833-1.422c-2.277,0-3.375,1.834-3.375,3.852a3.386,3.386,0,0,0,3.477,3.693,3.011,3.011,0,0,0,2.722-1.408Zm-24.414-2.586h3.787c-.107-1.868-1.184-2.186-1.9-2.186C3538.086,4027.245,3537.361,4028,3537.226,4029.431Zm4.775,2.949a2.982,2.982,0,0,1-2.753,1.49c-2.111,0-3.323-1.433-3.323-3.836,0-2.681,1.77-3.709,3.277-3.709a2.968,2.968,0,0,1,2.989,2.52,6.434,6.434,0,0,1,.135,1.445H3537.2c-.03,1.193.47,2.7,2.158,2.678a1.708,1.708,0,0,0,1.484-.815Zm8.853-2.949h3.79c-.108-1.868-1.187-2.186-1.9-2.186C3551.717,4027.245,3550.991,4028,3550.854,4029.431Zm4.777,2.949a2.979,2.979,0,0,1-2.754,1.49c-2.107,0-3.321-1.433-3.321-3.836,0-2.681,1.77-3.709,3.276-3.709a2.966,2.966,0,0,1,2.99,2.52,6.526,6.526,0,0,1,.133,1.445h-5.129c-.031,1.193.469,2.7,2.158,2.678a1.711,1.711,0,0,0,1.484-.815Zm13.624,1.367-1.25,0a8.418,8.418,0,0,1-.144-1.049,3.065,3.065,0,0,1-2.393,1.152,2.163,2.163,0,0,1-2.414-2.031,1.964,1.964,0,0,1,.315-1.074c.412-.6,1.167-1.086,3.293-1.25l1.132-.094v-.179c0-.741,0-1.977-1.595-1.977-1,0-1.343.482-1.458.926l-1.1-.465c.018-.039.038-.074.058-.115a2.6,2.6,0,0,1,2.46-1.27,3.536,3.536,0,0,1,2.075.606,2.42,2.42,0,0,1,.781,1.791l.046,3.662A5.54,5.54,0,0,0,3569.255,4033.747Zm-1.643-1.973c.182-.392.2-.552.2-1.6-.467.072-1.1.164-1.867.33-1.331.287-1.557.787-1.557,1.287,0,.57.454,1.055,1.343,1.055A1.933,1.933,0,0,0,3567.612,4031.774Zm-39.859,1.973-1.245,0a7.8,7.8,0,0,1-.144-1.049,3.086,3.086,0,0,1-2.392,1.152,2.164,2.164,0,0,1-2.418-2.031,1.932,1.932,0,0,1,.315-1.074c.409-.6,1.167-1.086,3.3-1.25l1.127-.094v-.179c0-.741,0-1.977-1.593-1.977-1,0-1.341.482-1.461.926l-1.1-.463c.019-.039.04-.076.06-.117a2.605,2.605,0,0,1,2.462-1.27,3.52,3.52,0,0,1,2.075.61,2.407,2.407,0,0,1,.779,1.787l.045,3.664A5.688,5.688,0,0,0,3527.753,4033.747Zm-1.64-1.973a3.115,3.115,0,0,0,.2-1.6c-.469.072-1.1.164-1.868.33-1.331.287-1.558.787-1.558,1.287,0,.57.456,1.055,1.345,1.055A1.936,1.936,0,0,0,3526.113,4031.774Z" transform="translate(-3498.356 -4012.818)" fill="#323232"/>
  <path id="Path_3220" data-name="Path 3220" d="M3577.059,4027.731c-.184.12-.373.235-.558.36-2.152-1.194-6.782-3.5-7.181-3.709-.428-.221-1.178-.524-1.081-1.235.131-1,1.866-3.191,2.6-4.089,3.99-4.881,5.778-6.385,6.963-6.229,1.264.164,1.968,1.473,2.05,7.588-.705-.219-1.483-.441-2.313-.648-.069-.889-.235-2.229-.3-2.694-.071-.525-.172-.721-.386-.748-.234-.031-.819.526-1.347,1.068-.239.243-.919.932-1.665,1.684a1.376,1.376,0,0,0-1.274.4,1.121,1.121,0,0,0-.114,1c-.406.4-.754.752-.975.973-.831.828-1.714,1.516-1.756,1.852-.039.275.384.56.984.918C3572.177,4025.1,3575.785,4027.046,3577.059,4027.731Zm5.6-6.1a43.261,43.261,0,0,0-8.556-2.272c-1.263-.164-1.774.284-1.25,1.487a19.4,19.4,0,0,0,3.235,4.672c1.393,1.49,2.9,1.894,3.383-.405.017-.082.033-.166.047-.244a16.276,16.276,0,0,0,.249-1.668c-.617-.279-1.311-.578-2-.871.039.526.1,1.436.136,2.139,0,.09.007.178.008.262.044,1.132-.344,1.132-.99.666-.752-.541-3.057-3.58-3.321-4.926-.013-.084.029-.09.076-.074a.28.28,0,0,1,.056.021l.007,0h0c.519.2,2.251.887,4.01,1.629.7.3,1.407.6,2.041.885s1.18.547,1.595.769c.76.408,1.055.684.737,1.008-1.582,1.606-7.109,3.893-9.018,6.719a.1.1,0,0,1-.019.027.817.817,0,0,0-.064.1c0,.006-.01.019-.015.027a2.508,2.508,0,0,0-.275.84c-.082.621.242,1.183,1.128,1.42a3.717,3.717,0,0,0,.751.142c.047,0,.1.008.156.01a26.411,26.411,0,0,0,7.472-1.482c1.392-.616.978-1.235.572-1.555-.3-.24-1.851-1.1-2.6-1.516-.2.129-.363.229-.559.358a21.612,21.612,0,0,1,2.083,1.4c.113.09.052.2-.119.207l-.14.014c-1.211.082-3.508.244-4.591.3-.156.008-.332.013-.435.019a7.283,7.283,0,0,1,.72-.578c2.306-1.625,6.154-3.906,7.287-4.889C3585.285,4025.548,3587.561,4023.339,3582.656,4021.626Z" transform="translate(-3498.356 -4012.818)" fill="#323232"/>
</svg>
