<svg xmlns="http://www.w3.org/2000/svg" width="70.107" height="17" viewBox="0 0 70.107 17">
  <g id="Az_logo_bottom" data-name="Az logo bottom" transform="translate(0 0)">
    <path id="Path_3219" data-name="Path 3219" d="M3500.587,4028.734l1.155-3.135,1.1,3.135Zm3.376,3.157h1.059l-2.746-7.542h-1.045l-2.874,7.542h1.067l.843-2.314h2.877Zm5.021-1.6c0,.612-.5.94-1.351.94a1.456,1.456,0,0,1-1.407-.638l-1.018.18a2.406,2.406,0,0,0,2.381,1.2c1.576,0,2.4-.875,2.4-1.8,0-1.2-1.1-1.521-2.369-1.775-.615-.123-1.331-.348-1.331-.891,0-.387.378-.836,1.132-.836a1.441,1.441,0,0,1,1.3.735l.893-.375a2.229,2.229,0,0,0-2.087-1.1c-1.325,0-2.2.654-2.2,1.695,0,1.18,1.014,1.409,1.994,1.624C3508.168,4029.437,3508.984,4029.645,3508.984,4030.294Zm3.118-5.945-.992.414v1.394h-.909v.8h.909v3.685c-.011.746-.011,1.289,1.1,1.289a6.093,6.093,0,0,0,.932-.1v-.792a2.423,2.423,0,0,1-.63.131c-.412,0-.412-.289-.412-.967v-3.248h1.042v-.8H3512.1Zm1.91,1.807v5.735h.963v-2.638a2.923,2.923,0,0,1,.243-1.49c.313-.505.774-.7,1.719-.709v-.992a2.067,2.067,0,0,0-1.962,1.12v-1.027Zm8.619-1.8v.93h4.287l-4.289,5.628v.98h5.54v-.9h-4.378l4.268-5.7v-.937Zm11.568,1.8v5.735h.96v-3.254a1.582,1.582,0,0,1,.422-1.282,1.5,1.5,0,0,1,1.1-.434,1.211,1.211,0,0,1,1.226.785,3.09,3.09,0,0,1,.063.944v3.24h.958v-3.4a4.152,4.152,0,0,0-.1-1.172,1.887,1.887,0,0,0-1.884-1.312,2.016,2.016,0,0,0-1.787,1.022v-.873Zm14.946,4.347a1.364,1.364,0,0,1-1.325.749c-.646,0-1.732-.41-1.732-2.3,0-.51.091-2.311,1.672-2.311a1.356,1.356,0,0,1,1.339.807l.9-.375a2.564,2.564,0,0,0-2.274-1.141c-1.827,0-2.709,1.472-2.709,3.091a2.718,2.718,0,0,0,2.791,2.964,2.417,2.417,0,0,0,2.185-1.13Zm-19.594-2.075h3.039c-.086-1.5-.95-1.754-1.527-1.754C3530.242,4026.673,3529.661,4027.278,3529.552,4028.428Zm3.832,2.367a2.393,2.393,0,0,1-2.209,1.2c-1.694,0-2.667-1.15-2.667-3.079a2.658,2.658,0,0,1,2.63-2.977,2.382,2.382,0,0,1,2.4,2.022,5.157,5.157,0,0,1,.108,1.159h-4.118c-.024.958.377,2.17,1.732,2.149a1.371,1.371,0,0,0,1.191-.654Zm7.105-2.367h3.042c-.087-1.5-.952-1.754-1.527-1.754C3541.182,4026.673,3540.6,4027.278,3540.49,4028.428Zm3.834,2.367a2.391,2.391,0,0,1-2.211,1.2c-1.691,0-2.665-1.15-2.665-3.079a2.657,2.657,0,0,1,2.629-2.977,2.38,2.38,0,0,1,2.4,2.022,5.226,5.226,0,0,1,.107,1.159h-4.116c-.025.958.376,2.17,1.732,2.149a1.373,1.373,0,0,0,1.191-.654Zm10.934,1.1-1,0a6.754,6.754,0,0,1-.115-.842,2.458,2.458,0,0,1-1.921.925,1.736,1.736,0,0,1-1.937-1.63,1.576,1.576,0,0,1,.253-.862c.331-.485.936-.872,2.643-1l.908-.075v-.144c0-.595,0-1.587-1.28-1.587-.805,0-1.078.387-1.17.743l-.886-.373c.014-.031.031-.06.046-.092a2.089,2.089,0,0,1,1.974-1.019,2.843,2.843,0,0,1,1.666.486,1.942,1.942,0,0,1,.627,1.438l.037,2.939A4.451,4.451,0,0,0,3555.258,4031.892Zm-1.319-1.583c.146-.314.158-.443.158-1.282-.375.058-.882.132-1.5.265-1.068.23-1.25.632-1.25,1.033,0,.457.364.847,1.078.847A1.551,1.551,0,0,0,3553.939,4030.308Zm-31.99,1.583-1,0a6.235,6.235,0,0,1-.116-.842,2.475,2.475,0,0,1-1.92.925,1.737,1.737,0,0,1-1.941-1.63,1.552,1.552,0,0,1,.253-.862c.328-.485.937-.872,2.646-1l.9-.075v-.144c0-.595,0-1.587-1.278-1.587-.805,0-1.076.387-1.173.743l-.887-.372c.015-.031.032-.061.048-.094a2.091,2.091,0,0,1,1.976-1.019,2.829,2.829,0,0,1,1.666.489,1.931,1.931,0,0,1,.625,1.434l.036,2.941A4.573,4.573,0,0,0,3521.949,4031.892Zm-1.316-1.583a2.5,2.5,0,0,0,.158-1.282c-.377.058-.881.132-1.5.265-1.068.23-1.25.632-1.25,1.033,0,.457.366.847,1.079.847A1.554,1.554,0,0,0,3520.633,4030.308Z" transform="translate(-3498.356 -4015.095)" fill="#323232"/>
    <path id="Path_3220" data-name="Path 3220" d="M3575.316,4024.787c-.148.1-.3.188-.448.289-1.727-.958-5.443-2.811-5.763-2.977-.344-.178-.946-.421-.868-.991.105-.8,1.5-2.561,2.089-3.282,3.2-3.917,4.637-5.125,5.588-5,1.015.131,1.58,1.182,1.646,6.09-.566-.176-1.19-.354-1.856-.52-.055-.714-.189-1.789-.238-2.162-.057-.421-.138-.579-.31-.6-.188-.025-.658.422-1.081.857-.192.195-.738.748-1.337,1.352a1.105,1.105,0,0,0-1.022.317.9.9,0,0,0-.092.807c-.326.322-.605.6-.782.781-.667.664-1.375,1.217-1.409,1.486-.031.221.308.449.79.737C3571.4,4022.677,3574.293,4024.237,3575.316,4024.787Zm4.492-4.9a34.751,34.751,0,0,0-6.867-1.824c-1.014-.131-1.424.228-1,1.194a15.566,15.566,0,0,0,2.6,3.749c1.118,1.2,2.33,1.521,2.715-.325.014-.066.026-.133.037-.2a13.1,13.1,0,0,0,.2-1.339c-.5-.224-1.052-.464-1.607-.7.031.422.081,1.153.109,1.717,0,.072.005.143.007.21.035.908-.276.908-.795.535a11.155,11.155,0,0,1-2.665-3.954c-.01-.067.023-.072.061-.059a.223.223,0,0,1,.045.017h.005c.417.163,1.807.712,3.219,1.308.565.237,1.129.482,1.638.71s.947.439,1.28.617c.61.328.847.549.592.809-1.27,1.289-5.706,3.125-7.238,5.393a.076.076,0,0,1-.015.021.65.65,0,0,0-.051.083.185.185,0,0,0-.012.022,2.007,2.007,0,0,0-.221.674c-.066.5.194.95.905,1.14a2.993,2.993,0,0,0,.6.114c.038,0,.083.006.125.008a21.177,21.177,0,0,0,6-1.189c1.117-.494.785-.991.459-1.248-.242-.193-1.486-.885-2.086-1.217-.161.1-.291.184-.449.287a17.316,17.316,0,0,1,1.672,1.121c.09.072.042.157-.1.166l-.112.011c-.972.065-2.816.2-3.685.243-.126.006-.267.01-.349.015a5.888,5.888,0,0,1,.578-.464c1.851-1.3,4.939-3.135,5.848-3.924C3581.918,4023.035,3583.745,4021.262,3579.808,4019.887Z" transform="translate(-3512.151 -4012.819)" fill="#323232"/>
  </g>
</svg>
