<svg xmlns="http://www.w3.org/2000/svg" width="15.3" height="17" viewBox="0 0 15.3 17">
  <g id="Card_-_Calendar" data-name="Card - Calendar" transform="translate(-3 -2)">
    <g id="Calendar" transform="translate(3 2)">
      <path id="Fill-1" d="M11.093,14.765a.72.72,0,0,1-.7-.722.706.706,0,0,1,.689-.722h.008a.722.722,0,0,1,0,1.444ZM7.667,11.637a.7.7,0,0,1-.722-.679.727.727,0,0,1,.689-.732.706.706,0,0,1,.034,1.411Zm0,3.086a.7.7,0,0,1-.722-.68.727.727,0,0,1,.689-.731.706.706,0,0,1,.034,1.411ZM4.215,11.637a.7.7,0,0,1-.722-.679.727.727,0,0,1,.689-.732.706.706,0,0,1,.034,1.411Zm-.008,3.086a.7.7,0,0,1-.722-.68.727.727,0,0,1,.689-.731.706.706,0,0,1,.034,1.411Zm6.2-3.773a.693.693,0,1,1,1.386-.034.693.693,0,1,1-1.386.043ZM0,7.257v6.471a4.059,4.059,0,0,0,4.358,4.361h6.575A4.023,4.023,0,0,0,15.3,13.78V7.257Z" transform="translate(0 -1.089)" fill="#8a1a56"/>
      <path id="Fill-4" d="M0,6.392A13.477,13.477,0,0,1,.135,4.584,3.9,3.9,0,0,1,3.864,1.49h7.574a3.944,3.944,0,0,1,3.728,3.094A13.5,13.5,0,0,1,15.3,6.392Z" transform="translate(-0.001 -0.223)" fill="#8a1a56" opacity="0.4"/>
      <path id="Fill-6" d="M5.191,3.9a.635.635,0,0,0,.647-.655V.655a.647.647,0,1,0-1.293,0V3.247a.635.635,0,0,0,.647.655" transform="translate(-0.682 0)" fill="#8a1a56"/>
      <path id="Fill-9" d="M12.581,3.9a.64.64,0,0,0,.647-.655V.655a.647.647,0,1,0-1.293,0V3.247a.635.635,0,0,0,.647.655" transform="translate(-1.79 0)" fill="#8a1a56"/>
    </g>
  </g>
</svg>
