<svg xmlns="http://www.w3.org/2000/svg" width="20" height="15" viewBox="0 0 20 15">
  <g id="Card_-_Title" data-name="Card - Title" transform="translate(-1 -4)">
    <g id="_3-User" data-name="3-User" transform="translate(1 4)">
      <path id="Fill-1" d="M10.371,10.54c-3.136,0-5.783.529-5.783,2.568s2.663,2.551,5.783,2.551c3.136,0,5.783-.528,5.783-2.568S13.49,10.54,10.371,10.54" transform="translate(-0.417 -0.659)" fill="#8a1a56"/>
      <path id="Fill-3" d="M10.566,7.938a3.886,3.886,0,0,0,3.827-3.969A3.886,3.886,0,0,0,10.566,0,3.886,3.886,0,0,0,6.74,3.969a3.886,3.886,0,0,0,3.827,3.969" transform="translate(-0.613 0)" fill="#8a1a56" opacity="0.4"/>
      <path id="Fill-6" d="M19.7,4.937A3.33,3.33,0,0,0,16.591.707a3.166,3.166,0,0,0-.645.068.123.123,0,0,0-.075.046.1.1,0,0,0,.015.1,5.562,5.562,0,0,1,.97,3.16,5.522,5.522,0,0,1-.895,3.039.15.15,0,0,0,.1.229,2.9,2.9,0,0,0,.44.044,3.208,3.208,0,0,0,3.2-2.459" transform="translate(-1.442 -0.044)" fill="#8a1a56" opacity="0.4"/>
      <path id="Fill-8" d="M21.318,10.718A2.5,2.5,0,0,0,19.38,9.5a13.727,13.727,0,0,0-2.948-.266.034.034,0,0,0-.029.024.043.043,0,0,0,.026.045A4.176,4.176,0,0,1,18.842,13.4a.167.167,0,0,0,.184.192c.524-.078,1.873-.378,2.291-1.314a1.853,1.853,0,0,0,0-1.565" transform="translate(-1.491 -0.577)" fill="#8a1a56"/>
      <path id="Fill-11" d="M5.658.775A3.1,3.1,0,0,0,5.014.707,3.33,3.33,0,0,0,1.9,4.937,3.207,3.207,0,0,0,5.106,7.4a3,3,0,0,0,.44-.044.15.15,0,0,0,.1-.229,5.524,5.524,0,0,1-.895-3.039A5.558,5.558,0,0,1,5.718.925a.1.1,0,0,0,.015-.1A.117.117,0,0,0,5.658.775" transform="translate(-0.163 -0.044)" fill="#8a1a56" opacity="0.4"/>
      <path id="Fill-13" d="M2.111,9.495A2.5,2.5,0,0,0,.174,10.717a1.849,1.849,0,0,0,0,1.566c.418.935,1.767,1.237,2.291,1.314a.166.166,0,0,0,.183-.193A4.174,4.174,0,0,1,5.063,9.3a.045.045,0,0,0,.025-.046A.031.031,0,0,0,5.06,9.23a13.692,13.692,0,0,0-2.949.265" transform="translate(0 -0.577)" fill="#8a1a56"/>
    </g>
  </g>
</svg>
