<svg xmlns="http://www.w3.org/2000/svg" width="13.3" height="19" viewBox="0 0 13.3 19">
  <g id="Card_-_Location" data-name="Card - Location" transform="translate(-5 -2)">
    <g id="Location" transform="translate(5 2)">
      <path id="Path_34175" d="M3.355.882a6.6,6.6,0,0,1,6.683.055,6.884,6.884,0,0,1,3.262,5.9,9.9,9.9,0,0,1-3.033,6.376,17.752,17.752,0,0,1-3.191,2.654A1.122,1.122,0,0,1,6.689,16a.784.784,0,0,1-.371-.112,17.524,17.524,0,0,1-4.6-4.28A8.682,8.682,0,0,1,0,6.715H0l0-.258A6.72,6.72,0,0,1,3.355.882ZM7.512,4.739a2.244,2.244,0,0,0-2.464.489,2.3,2.3,0,0,0-.493,2.485A2.259,2.259,0,0,0,6.642,9.122a2.233,2.233,0,0,0,1.6-.66,2.3,2.3,0,0,0-.729-3.723Z" transform="translate(0 0)" fill="#8a1a56"/>
      <ellipse id="Ellipse_743" cx="4.65" cy="1" rx="4.65" ry="1" transform="translate(2 17)" fill="#8a1a56" opacity="0.4"/>
    </g>
  </g>
</svg>
