<svg xmlns="http://www.w3.org/2000/svg" width="23" height="23" viewBox="0 0 23 23">
  <g id="My_profile" data-name="My profile" transform="translate(-347 -22)">
    <circle id="Ellipse_1" data-name="Ellipse 1" cx="11.5" cy="11.5" r="11.5" transform="translate(347 22)" fill="#fff"/>
    <g id="Iconly_Bold_Profile" data-name="Iconly/Bold/Profile" transform="translate(353.571 26.929)">
      <g id="Profile" transform="translate(0 0)">
        <path id="Path_5357" data-name="Path 5357" d="M4.929,8.657c2.673,0,4.929.463,4.929,2.251s-2.27,2.235-4.929,2.235S0,12.68,0,10.892,2.27,8.657,4.929,8.657ZM4.929,0A3.362,3.362,0,0,1,8.19,3.477,3.363,3.363,0,0,1,4.929,6.955,3.363,3.363,0,0,1,1.667,3.477,3.363,3.363,0,0,1,4.929,0Z" transform="translate(0 0)" fill="#6f2754"/>
      </g>
    </g>
  </g>
</svg>
