<svg xmlns="http://www.w3.org/2000/svg" width="97.277" height="29" viewBox="0 0 97.277 29">
  <g id="planora_logo" data-name="planora logo" transform="translate(-30.378 -17)">
    <text id="Planorai" transform="translate(62.654 37.984)" fill="#fff" font-size="18" font-family="AlwynNewRounded-Medium, Alwyn New Rounded" font-weight="500"><tspan x="0" y="0">Planorai</tspan></text>
    <path id="Path_3220" data-name="Path 3220" d="M3580.319,4033.234c-.252.164-.511.321-.765.493-2.947-1.634-9.285-4.794-9.831-5.078-.586-.3-1.614-.718-1.481-1.691.18-1.368,2.556-4.368,3.565-5.6,5.462-6.683,7.911-8.742,9.532-8.527,1.731.223,2.694,2.015,2.806,10.387-.965-.3-2.03-.6-3.166-.886-.095-1.217-.322-3.051-.405-3.688-.1-.72-.236-.988-.528-1.026-.321-.042-1.121.721-1.845,1.464-.327.333-1.258,1.274-2.28,2.305a1.886,1.886,0,0,0-1.744.541,1.533,1.533,0,0,0-.156,1.375c-.555.549-1.032,1.03-1.334,1.334-1.137,1.132-2.347,2.075-2.4,2.534-.054.376.526.767,1.347,1.256C3573.635,4029.633,3578.574,4032.3,3580.319,4033.234Zm7.662-8.358a59.2,59.2,0,0,0-11.713-3.111c-1.73-.224-2.429.389-1.713,2.036a26.558,26.558,0,0,0,4.43,6.4c1.907,2.04,3.974,2.592,4.632-.554.023-.113.045-.228.064-.335a22.259,22.259,0,0,0,.341-2.282c-.844-.382-1.794-.792-2.742-1.193.053.72.138,1.966.186,2.929,0,.122.01.243.011.358.06,1.55-.471,1.55-1.355.911-1.03-.74-4.187-4.9-4.548-6.744-.018-.114.04-.124.1-.1a.323.323,0,0,1,.076.028l.01,0h0c.71.277,3.082,1.214,5.49,2.23.964.4,1.926.823,2.794,1.211s1.616.749,2.183,1.053c1.041.558,1.445.937,1.01,1.38-2.166,2.2-9.732,5.331-12.347,9.2a.128.128,0,0,1-.025.036,1.111,1.111,0,0,0-.089.144c-.006.008-.013.026-.02.038a3.411,3.411,0,0,0-.376,1.149c-.112.85.332,1.62,1.545,1.944a5.093,5.093,0,0,0,1.029.194c.063,0,.141.012.213.015a36.151,36.151,0,0,0,10.23-2.03c1.907-.845,1.338-1.691.784-2.128-.413-.329-2.535-1.509-3.56-2.076-.275.177-.5.314-.765.491a29.355,29.355,0,0,1,2.852,1.912c.155.122.071.268-.163.283-.066,0-.119.009-.192.018-1.658.114-4.8.336-6.285.416-.214.011-.455.019-.6.026a10.124,10.124,0,0,1,.986-.792c3.157-2.225,8.426-5.347,9.977-6.693C3591.58,4030.246,3594.7,4027.221,3587.981,4024.876Z" transform="translate(-3537.853 -3995.818)" fill="#e88c02"/>
  </g>
</svg>
