<svg xmlns="http://www.w3.org/2000/svg" xmlns:xlink="http://www.w3.org/1999/xlink" width="44.25" height="39" viewBox="0 0 44.25 39">
  <defs>
    <filter id="Path_6548" x="0" y="0" width="44.25" height="39" filterUnits="userSpaceOnUse">
      <feOffset dy="3" input="SourceAlpha"/>
      <feGaussianBlur stdDeviation="3" result="blur"/>
      <feFlood flood-opacity="0.161"/>
      <feComposite operator="in" in2="blur"/>
      <feComposite in="SourceGraphic"/>
    </filter>
  </defs>
  <g id="Ticket" transform="translate(7 2)">
    <g id="Ticket-2" data-name="Ticket" transform="translate(2 4)">
      <g transform="matrix(1, 0, 0, 1, -9, -6)" filter="url(#Path_6548)">
        <path id="Path_6548-2" data-name="Path 6548" d="M13.7,0a.763.763,0,0,1,.773.752h0V3.909a.952.952,0,0,0,1.9,0h0V.752A.763.763,0,0,1,17.149,0h4.138A4.893,4.893,0,0,1,26.25,4.821h0V7.929a.911.911,0,0,1-.279.654.965.965,0,0,1-.673.271,1.647,1.647,0,1,0-.018,3.292.915.915,0,0,1,.97.869h0v3.163A4.894,4.894,0,0,1,21.287,21H17.149a.763.763,0,0,1-.774-.752h0V17.584a.952.952,0,0,0-1.9,0h0v2.664A.763.763,0,0,1,13.7,21H4.963A4.9,4.9,0,0,1,0,16.179H0V13.016a.915.915,0,0,1,.97-.869,1.677,1.677,0,0,0,1.683-1.652,1.6,1.6,0,0,0-1.7-1.541.965.965,0,0,1-.673-.271A.911.911,0,0,1,0,8.028H0V4.834A4.921,4.921,0,0,1,4.976,0H13.7Zm1.725,7.485a.946.946,0,0,0-.952.925h0v4.932a.952.952,0,0,0,1.9,0h0V8.41A.937.937,0,0,0,15.423,7.485Z" transform="translate(9 6)" fill="#fff"/>
      </g>
    </g>
  </g>
</svg>
