<svg id="Event_booking" data-name="Event booking" xmlns="http://www.w3.org/2000/svg" width="52" height="52" viewBox="0 0 52 52">
  <path id="Path_6541" data-name="Path 6541" d="M37.284,0C46.1,0,52,6.188,52,15.392h0V36.637C52,45.812,46.1,52,37.284,52H14.742C5.928,52,0,45.812,0,36.637H0V15.392C0,6.188,5.928,0,14.742,0H37.284Zm-.416,18.2a2.291,2.291,0,0,0-3.224,0h0L22.906,28.938l-4.55-4.55a2.28,2.28,0,1,0-3.224,3.224h0l6.188,6.162a2.292,2.292,0,0,0,3.2,0h0l12.35-12.35A2.291,2.291,0,0,0,36.868,18.2Z" transform="translate(0 0)" fill="#3d825a"/>
</svg>
