<svg xmlns="http://www.w3.org/2000/svg" xmlns:xlink="http://www.w3.org/1999/xlink" width="20" height="18" viewBox="0 0 20 18">
  <defs>
    <filter id="Rectangle_4611">
      <feOffset dy="3" input="SourceAlpha"/>
      <feGaussianBlur stdDeviation="3" result="blur"/>
      <feFlood flood-opacity="0.161" result="color"/>
      <feComposite operator="out" in="SourceGraphic" in2="blur"/>
      <feComposite operator="in" in="color"/>
      <feComposite operator="in" in2="SourceGraphic"/>
    </filter>
    <filter id="Path_6553" x="0" y="0" width="20" height="18" filterUnits="userSpaceOnUse">
      <feOffset dy="1" input="SourceAlpha"/>
      <feGaussianBlur stdDeviation="1" result="blur-2"/>
      <feFlood flood-opacity="0.161" result="color-2"/>
      <feComposite operator="out" in="SourceGraphic" in2="blur-2"/>
      <feComposite operator="in" in="color-2"/>
      <feComposite operator="in" in2="SourceGraphic"/>
    </filter>
  </defs>
  <g id="Event_activity" data-name="Event activity" transform="translate(-2 -3)">
    <g id="Ticket-Star" transform="translate(2 3)">
      <g data-type="innerShadowGroup">
        <rect id="Rectangle_4611-2" data-name="Rectangle 4611" width="10" height="10" transform="translate(5 4)" fill="#71238f"/>
        <g transform="matrix(1, 0, 0, 1, 0, 0)" filter="url(#Rectangle_4611)">
          <rect id="Rectangle_4611-3" data-name="Rectangle 4611" width="10" height="10" transform="translate(5 4)" fill="#fff"/>
        </g>
      </g>
      <g data-type="innerShadowGroup">
        <path id="Path_6553-2" data-name="Path 6553" d="M15.856,0A4.129,4.129,0,0,1,20,4.105h0V6.782a.741.741,0,0,1-.219.525.753.753,0,0,1-.531.218,1.475,1.475,0,1,0,0,2.951.747.747,0,0,1,.75.743h0V13.9A4.128,4.128,0,0,1,15.858,18H4.143A4.129,4.129,0,0,1,0,13.9H0V11.219a.747.747,0,0,1,.75-.743A1.484,1.484,0,0,0,2.24,9,1.41,1.41,0,0,0,.75,7.612a.752.752,0,0,1-.53-.218A.74.74,0,0,1,0,6.869H0L0,4.105A4.129,4.129,0,0,1,4.144,0H15.856ZM10,5.153a.74.74,0,0,0-.665.408h0L8.608,7.025,6.982,7.26a.735.735,0,0,0-.6.5.724.724,0,0,0,.187.753h0L7.748,9.648,7.47,11.256a.727.727,0,0,0,.3.718.739.739,0,0,0,.777.055h0L10,11.27l1.455.757a.733.733,0,0,0,.78-.053.723.723,0,0,0,.3-.717h0l-.279-1.608,1.179-1.138a.72.72,0,0,0,.187-.753.73.73,0,0,0-.6-.5h0l-1.629-.236-.729-1.463A.737.737,0,0,0,10,5.153Z" fill="#e5c4f1"/>
        <g transform="matrix(1, 0, 0, 1, 0, 0)" filter="url(#Path_6553)">
          <path id="Path_6553-3" data-name="Path 6553" d="M15.856,0A4.129,4.129,0,0,1,20,4.105h0V6.782a.741.741,0,0,1-.219.525.753.753,0,0,1-.531.218,1.475,1.475,0,1,0,0,2.951.747.747,0,0,1,.75.743h0V13.9A4.128,4.128,0,0,1,15.858,18H4.143A4.129,4.129,0,0,1,0,13.9H0V11.219a.747.747,0,0,1,.75-.743A1.484,1.484,0,0,0,2.24,9,1.41,1.41,0,0,0,.75,7.612a.752.752,0,0,1-.53-.218A.74.74,0,0,1,0,6.869H0L0,4.105A4.129,4.129,0,0,1,4.144,0H15.856ZM10,5.153a.74.74,0,0,0-.665.408h0L8.608,7.025,6.982,7.26a.735.735,0,0,0-.6.5.724.724,0,0,0,.187.753h0L7.748,9.648,7.47,11.256a.727.727,0,0,0,.3.718.739.739,0,0,0,.777.055h0L10,11.27l1.455.757a.733.733,0,0,0,.78-.053.723.723,0,0,0,.3-.717h0l-.279-1.608,1.179-1.138a.72.72,0,0,0,.187-.753.73.73,0,0,0-.6-.5h0l-1.629-.236-.729-1.463A.737.737,0,0,0,10,5.153Z" fill="#fff"/>
        </g>
      </g>
    </g>
  </g>
</svg>
