<svg xmlns="http://www.w3.org/2000/svg" xmlns:xlink="http://www.w3.org/1999/xlink" width="29" height="29" viewBox="0 0 29 29">
  <defs>
    <linearGradient id="linear-gradient" x1="0.5" x2="0.5" y2="1" gradientUnits="objectBoundingBox">
      <stop offset="0" stop-color="#65ddb6"/>
      <stop offset="1" stop-color="#0c8110"/>
    </linearGradient>
    <filter id="Path_5416" x="0" y="0" width="29" height="29" filterUnits="userSpaceOnUse">
      <feOffset dy="2" input="SourceAlpha"/>
      <feGaussianBlur stdDeviation="1" result="blur"/>
      <feFlood flood-opacity="0.18"/>
      <feComposite operator="in" in2="blur"/>
      <feComposite in="SourceGraphic"/>
    </filter>
  </defs>
  <g id="Accepted" transform="translate(1 -1)">
    <g id="Tick-Square" transform="translate(2 2)">
      <g transform="matrix(1, 0, 0, 1, -3, -1)" filter="url(#Path_5416)">
        <path id="Path_5416-2" data-name="Path 5416" d="M16.491,0C20.389,0,23,2.737,23,6.808h0v9.4c0,4.058-2.611,6.8-6.509,6.8H6.52C2.622,23,0,20.263,0,16.2H0v-9.4C0,2.737,2.622,0,6.52,0h9.97Zm-.184,8.05a1.013,1.013,0,0,0-1.426,0h0L10.132,12.8,8.119,10.787a1.008,1.008,0,0,0-1.426,1.426h0L9.43,14.938a1.014,1.014,0,0,0,1.415,0h0l5.462-5.462A1.013,1.013,0,0,0,16.307,8.05Z" transform="translate(3 1)" fill="url(#linear-gradient)"/>
      </g>
    </g>
  </g>
</svg>
