<svg xmlns="http://www.w3.org/2000/svg" width="24.638" height="19" viewBox="0 0 24.638 19">
  <g id="Registrations_inactive" data-name="Registrations inactive" transform="translate(-1 -4)">
    <g id="_3-User" data-name="3-User" transform="translate(1 4)">
      <path id="Combined-Shape" d="M12.32,11.785h.414c2.185.014,7.177.235,7.177,3.619,0,3.362-4.819,3.581-7.143,3.6h-.861c-2.185-.014-7.178-.235-7.178-3.615s4.994-3.586,7.178-3.6h.414Zm0,1.7c-2.689,0-5.895.33-5.895,1.9,0,1.537,3.015,1.9,5.649,1.917h.246c2.689,0,5.893-.329,5.893-1.9C18.213,13.816,15.008,13.482,12.32,13.482Zm9-2.157c2.742.411,3.318,1.7,3.318,2.707a2.484,2.484,0,0,1-1.86,2.356.858.858,0,0,1-.3.055.849.849,0,0,1-.3-1.642c.767-.292.767-.614.767-.77,0-.5-.63-.842-1.873-1.028a.849.849,0,1,1,.252-1.679Zm-17.036.713A.851.851,0,0,1,3.57,13c-1.243.186-1.873.532-1.873,1.028,0,.155,0,.476.768.77a.849.849,0,0,1-.3,1.642.858.858,0,0,1-.3-.055A2.486,2.486,0,0,1,0,14.032c0-1.007.576-2.3,3.319-2.707A.854.854,0,0,1,4.284,12.038ZM12.32,0a5.17,5.17,0,1,1,0,10.341h-.031A5.154,5.154,0,0,1,7.15,5.167,5.175,5.175,0,0,1,12.32,0Zm0,1.7A3.476,3.476,0,0,0,8.848,5.17a3.456,3.456,0,0,0,3.444,3.473l.028.849V8.643a3.473,3.473,0,1,0,0-6.946Zm7-.589a4.1,4.1,0,0,1-.1,8.1.834.834,0,0,1-.118.008.849.849,0,0,1-.117-1.69,2.4,2.4,0,0,0,.054-4.746.849.849,0,1,1,.276-1.675Zm-13.032.7a.849.849,0,0,1-.7.975,2.4,2.4,0,0,0,.053,4.746.849.849,0,0,1-.117,1.69.834.834,0,0,1-.118-.008,4.1,4.1,0,0,1-.1-8.1A.844.844,0,0,1,6.291,1.808Z" transform="translate(0 0)" fill="#757575" fill-rule="evenodd"/>
    </g>
  </g>
</svg>
