<svg xmlns="http://www.w3.org/2000/svg" xmlns:xlink="http://www.w3.org/1999/xlink" width="34.75" height="29" viewBox="0 0 34.75 29">
  <defs>
    <linearGradient id="linear-gradient" x1="0.5" x2="0.5" y2="1" gradientUnits="objectBoundingBox">
      <stop offset="0" stop-color="#ffb02c"/>
      <stop offset="1" stop-color="#8b7623"/>
    </linearGradient>
    <filter id="Path_5414" x="0" y="0" width="34.75" height="29" filterUnits="userSpaceOnUse">
      <feOffset dy="2" input="SourceAlpha"/>
      <feGaussianBlur stdDeviation="1" result="blur"/>
      <feFlood flood-opacity="0.2"/>
      <feComposite operator="in" in2="blur"/>
      <feComposite in="SourceGraphic"/>
    </filter>
  </defs>
  <g id="Registered" transform="translate(1 -3)">
    <g id="Ticket" transform="translate(2 4)">
      <g transform="matrix(1, 0, 0, 1, -3, -1)" filter="url(#Path_5414)">
        <path id="Path_5414-2" data-name="Path 5414" d="M15,0a.836.836,0,0,1,.847.824h0V4.281a1.043,1.043,0,0,0,2.085,0h0V.824A.836.836,0,0,1,18.782,0h4.532A5.359,5.359,0,0,1,28.75,5.281h0v3.4a1,1,0,0,1-.306.716,1.057,1.057,0,0,1-.737.3,1.8,1.8,0,1,0-.02,3.606,1,1,0,0,1,1.062.952h0v3.464A5.36,5.36,0,0,1,23.314,23H18.782a.836.836,0,0,1-.848-.824h0V19.259a1.043,1.043,0,0,0-2.085,0h0v2.917A.836.836,0,0,1,15,23H5.436A5.368,5.368,0,0,1,0,17.719H0V14.255A1,1,0,0,1,1.062,13.3a1.837,1.837,0,0,0,1.843-1.81A1.748,1.748,0,0,0,1.043,9.805a1.057,1.057,0,0,1-.737-.3A1,1,0,0,1,0,8.792H0v-3.5A5.389,5.389,0,0,1,5.45,0H15Zm1.889,8.2a1.036,1.036,0,0,0-1.043,1.013h0v5.4a1.043,1.043,0,0,0,2.085,0h0v-5.4A1.027,1.027,0,0,0,16.891,8.2Z" transform="translate(3 1)" fill="url(#linear-gradient)"/>
      </g>
    </g>
  </g>
</svg>
