<svg xmlns="http://www.w3.org/2000/svg" xmlns:xlink="http://www.w3.org/1999/xlink" width="37.625" height="29" viewBox="0 0 37.625 29">
  <defs>
    <linearGradient id="linear-gradient" y1="0.5" x2="1" y2="0.793" gradientUnits="objectBoundingBox">
      <stop offset="0" stop-color="#ff2ca5"/>
      <stop offset="1" stop-color="#0a89af"/>
    </linearGradient>
    <filter id="_3-Friends" x="0" y="0" width="37.625" height="29" filterUnits="userSpaceOnUse">
      <feOffset dy="2" input="SourceAlpha"/>
      <feGaussianBlur stdDeviation="1" result="blur"/>
      <feFlood flood-opacity="0.2"/>
      <feComposite operator="in" in2="blur"/>
      <feComposite in="SourceGraphic"/>
    </filter>
  </defs>
  <g id="Total" transform="translate(2 -3)">
    <g id="_3-User" data-name="3-User" transform="translate(1 4)">
      <g transform="matrix(1, 0, 0, 1, -3, -1)" filter="url(#_3-Friends)">
        <path id="_3-Friends-2" data-name="3-Friends" d="M15.739,15.151c4.932,0,9.144.782,9.144,3.911S20.7,23,15.739,23C10.807,23,6.6,22.218,6.6,19.09S10.78,15.151,15.739,15.151Zm7.886-1.884a22.359,22.359,0,0,1,4.662.408c1.587.312,2.631.949,3.063,1.875a2.764,2.764,0,0,1,0,2.4c-.662,1.436-2.794,1.9-3.623,2.016a.26.26,0,0,1-.291-.3c.423-3.978-2.945-5.865-3.816-6.3a.065.065,0,0,1-.041-.067A.054.054,0,0,1,23.625,13.267Zm-15.98,0,.355,0a.053.053,0,0,1,.045.036.066.066,0,0,1-.04.069c-.873.434-4.241,2.32-3.818,6.3a.26.26,0,0,1-.29.3C3.07,19.846.937,19.385.275,17.95a2.755,2.755,0,0,1,0-2.4c.432-.926,1.475-1.563,3.062-1.876A22.485,22.485,0,0,1,8,13.267ZM15.739,0A6.046,6.046,0,0,1,21.79,6.085a6.051,6.051,0,1,1-12.1,0A6.046,6.046,0,0,1,15.739,0Zm8.214,1.015A5.14,5.14,0,0,1,28.877,7.5a5.05,5.05,0,0,1-5.067,3.769,4.882,4.882,0,0,1-.7-.067.228.228,0,0,1-.153-.351,8.4,8.4,0,0,0-.121-9.505.148.148,0,0,1-.023-.158.186.186,0,0,1,.118-.071A5.04,5.04,0,0,1,23.954,1.015Zm-16.283,0a5.061,5.061,0,0,1,1.019.1.2.2,0,0,1,.118.071.151.151,0,0,1-.023.158,8.4,8.4,0,0,0-.121,9.505.228.228,0,0,1-.153.351,4.718,4.718,0,0,1-.7.067A5.05,5.05,0,0,1,2.748,7.5,5.139,5.139,0,0,1,7.67,1.015Z" transform="translate(3 1)" fill="url(#linear-gradient)"/>
      </g>
    </g>
  </g>
</svg>
