<svg xmlns="http://www.w3.org/2000/svg" width="18" height="18" viewBox="0 0 18 18">
  <g id="all_media" data-name="all media" transform="translate(-2 -2)">
    <g id="Category" transform="translate(2 2)">
      <path id="Combined-Shape" d="M3.923,10.154c3.756,0,3.923,1.274,3.923,3.923,0,1.327,0,2.272-.558,2.963-.642.8-1.809.96-3.366.96S1.2,17.837.558,17.04C0,16.349,0,15.405,0,14.1l.692-.023H0C0,11.428.167,10.154,3.923,10.154Zm10.154,0c3.756,0,3.923,1.274,3.923,3.923,0,1.327,0,2.272-.558,2.963-.642.8-1.809.96-3.366.96s-2.724-.163-3.366-.96c-.558-.691-.558-1.635-.558-2.94l.692-.023h-.692C10.154,11.428,10.321,10.154,14.077,10.154ZM4.113,11.539h-.19c-2.408,0-2.532.173-2.538,2.194v.787a3.131,3.131,0,0,0,.249,1.652c.245.3.971.443,2.288.443s2.044-.141,2.288-.444a4.166,4.166,0,0,0,.25-2.072C6.462,11.791,6.462,11.55,4.113,11.539Zm10.154,0h-.19c-2.408,0-2.532.173-2.538,2.194v.787a3.13,3.13,0,0,0,.249,1.652c.245.3.971.443,2.288.443s2.044-.141,2.288-.444a4.166,4.166,0,0,0,.25-2.072C16.615,11.791,16.615,11.55,14.267,11.539ZM3.923,0C7.679,0,7.846,1.274,7.846,3.923c0,1.327,0,2.272-.558,2.963-.642.8-1.809.96-3.366.96S1.2,7.683.558,6.886C0,6.195,0,5.251,0,3.946l.692-.023H0C0,1.274.167,0,3.923,0ZM14.077,0C17.833,0,18,1.274,18,3.923c0,1.327,0,2.272-.558,2.963-.642.8-1.809.96-3.366.96s-2.724-.163-3.366-.96c-.558-.691-.558-1.635-.558-2.94l.692-.023h-.692C10.154,1.274,10.321,0,14.077,0ZM4.113,1.385h-.19c-2.408,0-2.532.173-2.538,2.194v.788a3.131,3.131,0,0,0,.249,1.652c.245.3.971.443,2.288.443s2.044-.141,2.288-.444a4.166,4.166,0,0,0,.25-2.072C6.462,1.637,6.462,1.4,4.113,1.385Zm10.154,0h-.19c-2.408,0-2.532.173-2.538,2.194v.788a3.13,3.13,0,0,0,.249,1.652c.245.3.971.443,2.288.443s2.044-.141,2.288-.444a4.166,4.166,0,0,0,.25-2.072C16.615,1.637,16.615,1.4,14.267,1.385Z" fill="#fff" fill-rule="evenodd"/>
    </g>
  </g>
</svg>
