<svg xmlns="http://www.w3.org/2000/svg" width="18.002" height="18" viewBox="0 0 18.002 18">
  <g id="image" transform="translate(-2 -2)">
    <g id="Image-2" transform="translate(2 2)">
      <path id="Combined-Shape" d="M12.9,0a4.976,4.976,0,0,1,3.617,1.4A5.464,5.464,0,0,1,18,5.327v6.311a.7.7,0,0,1,0,.073l0,.963C18,15.859,15.949,18,12.9,18H5.1C2.049,18,0,15.859,0,12.674V5.326C0,2.141,2.049,0,5.1,0Zm.25,9.772c-.53,0-1.153.878-1.7,1.653-.756,1.064-1.538,2.166-2.716,2.166a5.619,5.619,0,0,1-2.169-.578c-1.023-.431-1.487-.569-1.94-.2A12.427,12.427,0,0,0,2.4,15.6,3.646,3.646,0,0,0,5.1,16.647h7.8a3.622,3.622,0,0,0,3.749-3.973v-.721l-.021-.022C15.836,11.118,14.472,9.772,13.151,9.772ZM12.9,1.353H5.1c-2.274,0-3.745,1.56-3.745,3.973v7.348a4.866,4.866,0,0,0,.265,1.638,12.176,12.176,0,0,1,2.143-2.541c1.129-.929,2.345-.419,3.325-.006a4.493,4.493,0,0,0,1.644.472c.48,0,1.082-.848,1.614-1.6.739-1.043,1.578-2.223,2.806-2.223a5.567,5.567,0,0,1,3.5,1.651V5.326a4.076,4.076,0,0,0-1.084-2.968A3.655,3.655,0,0,0,12.9,1.353ZM6.186,3.779A2.346,2.346,0,0,1,8.528,6.12h0A2.342,2.342,0,1,1,6.186,3.779Zm0,1.353a.988.988,0,1,0,.99.99A.989.989,0,0,0,6.185,5.132Z" transform="translate(0 0)" fill="#797979" fill-rule="evenodd"/>
    </g>
  </g>
</svg>
