<svg xmlns="http://www.w3.org/2000/svg" width="18" height="18" viewBox="0 0 18 18">
  <g id="Videos" transform="translate(-2 -2)">
    <g id="Play" transform="translate(2 2)">
      <path id="Combined-Shape" d="M9,0A9,9,0,1,1,0,9,9.01,9.01,0,0,1,9,0ZM9,1.317A7.683,7.683,0,1,0,16.683,9,7.691,7.691,0,0,0,9,1.317Zm-.368,4.62c.457.191,3.661,1.832,3.661,3.059,0,1.15-2.884,2.759-3.62,3.066a2.518,2.518,0,0,1-.921.232.877.877,0,0,1-.645-.25c-.141-.14-.519-.513-.521-2.97,0-2.61.392-3,.521-3.127C7.565,5.492,8.313,5.8,8.632,5.937ZM8.02,7.1a15.646,15.646,0,0,0,0,3.812A9.993,9.993,0,0,0,10.908,9,10.5,10.5,0,0,0,8.02,7.1Z" fill="#797979" fill-rule="evenodd"/>
    </g>
  </g>
</svg>
