<svg xmlns="http://www.w3.org/2000/svg" width="20" height="18" viewBox="0 0 20 18">
  <g id="Attendee" transform="translate(-2 -3)">
    <g id="_2-User" data-name="2-User" transform="translate(2 3)">
      <path id="Fill-1" d="M7.349,11.858C3.386,11.858,0,12.47,0,14.917S3.364,18,7.349,18c3.964,0,7.349-.612,7.349-3.06s-3.364-3.083-7.349-3.083" fill="#af0a62"/>
      <path id="Fill-3" d="M7.349,9.525a4.8,4.8,0,0,0,4.863-4.762A4.8,4.8,0,0,0,7.349,0,4.8,4.8,0,0,0,2.486,4.762,4.8,4.8,0,0,0,7.349,9.525" fill="#af0a62" opacity="0.4"/>
      <path id="Fill-5" d="M14.173,4.849a6.368,6.368,0,0,1-1.137,3.646.177.177,0,0,0,.122.275,3.968,3.968,0,0,0,.56.052,4.045,4.045,0,0,0,4.072-2.95A4.045,4.045,0,0,0,13.834.8a4.159,4.159,0,0,0-.818.081.148.148,0,0,0-.095.056.111.111,0,0,0,.019.124,6.414,6.414,0,0,1,1.234,3.793" fill="#af0a62" opacity="0.4"/>
      <path id="Fill-7" d="M19.779,12.169A3.19,3.19,0,0,0,17.317,10.7a18.36,18.36,0,0,0-3.748-.319.043.043,0,0,0-.037.028.054.054,0,0,0,.033.055c.7.339,3.408,1.815,3.068,4.927a.207.207,0,0,0,.234.232c.666-.093,2.381-.454,2.912-1.577a2.107,2.107,0,0,0,0-1.878" fill="#af0a62"/>
    </g>
  </g>
</svg>
