<svg id="Calendar" xmlns="http://www.w3.org/2000/svg" width="19.8" height="22" viewBox="0 0 19.8 22">
  <g id="Calendar-2" data-name="Calendar" transform="translate(0 0)">
    <path id="Fill-1" d="M14.356,16.973a.932.932,0,0,1-.9-.935.914.914,0,0,1,.891-.934h.011a.935.935,0,0,1,0,1.869ZM9.922,12.925a.9.9,0,0,1-.935-.879.941.941,0,0,1,.891-.947.914.914,0,0,1,.043,1.826Zm0,3.993a.9.9,0,0,1-.935-.88.94.94,0,0,1,.891-.946.914.914,0,0,1,.043,1.826ZM5.455,12.925a.9.9,0,0,1-.935-.879.941.941,0,0,1,.891-.947.914.914,0,0,1,.043,1.826Zm-.011,3.993a.9.9,0,0,1-.935-.88.94.94,0,0,1,.891-.946.914.914,0,0,1,.043,1.826Zm8.02-4.883a.9.9,0,1,1,1.793-.044.9.9,0,1,1-1.793.055ZM0,7.257v8.374a5.253,5.253,0,0,0,5.64,5.643h8.509c3.477,0,5.651-2.123,5.651-5.576V7.257Z" transform="translate(0 0.726)" fill="#af0a62"/>
    <path id="Fill-4" d="M0,7.834a17.441,17.441,0,0,1,.171-2.34A5.05,5.05,0,0,1,5,1.49h9.8a5.1,5.1,0,0,1,4.825,4,17.47,17.47,0,0,1,.17,2.34Z" transform="translate(0 0.149)" fill="#af0a62" opacity="0.4"/>
    <path id="Fill-6" d="M5.381,5.049A.821.821,0,0,0,6.218,4.2V.848a.837.837,0,1,0-1.674,0V4.2a.821.821,0,0,0,.837.847" transform="translate(0.454 0)" fill="#af0a62"/>
    <path id="Fill-9" d="M12.771,5.049a.828.828,0,0,0,.837-.847V.848a.837.837,0,1,0-1.674,0V4.2a.822.822,0,0,0,.837.847" transform="translate(1.193 0)" fill="#af0a62"/>
  </g>
</svg>
