<svg xmlns="http://www.w3.org/2000/svg" width="15.4" height="22" viewBox="0 0 15.4 22">
  <g id="Location" transform="translate(-5 -2)">
    <g id="Location-2" data-name="Location" transform="translate(5 2)">
      <path id="Path_34175" d="M3.885,1.03a7.578,7.578,0,0,1,7.738.064A8.064,8.064,0,0,1,15.4,7.988a11.614,11.614,0,0,1-3.512,7.452,20.6,20.6,0,0,1-3.695,3.1,1.292,1.292,0,0,1-.448.158.9.9,0,0,1-.43-.13,20.367,20.367,0,0,1-5.322-5A10.207,10.207,0,0,1,0,7.848H0l.005-.3A7.865,7.865,0,0,1,3.885,1.03ZM8.7,5.538a2.58,2.58,0,0,0-2.853.572,2.7,2.7,0,0,0-.571,2.9,2.615,2.615,0,0,0,2.417,1.647A2.573,2.573,0,0,0,9.542,9.89,2.7,2.7,0,0,0,8.7,5.538Z" transform="translate(0 0)" fill="#af0a62"/>
      <ellipse id="Ellipse_743" cx="5.5" cy="1.1" rx="5.5" ry="1.1" transform="translate(2.2 19.8)" fill="#af0a62" opacity="0.4"/>
    </g>
  </g>
</svg>
