<svg xmlns="http://www.w3.org/2000/svg" xmlns:xlink="http://www.w3.org/1999/xlink" width="30.25" height="22" viewBox="0 0 30.25 22">
  <defs>
    <radialGradient id="radial-gradient" cx="0.275" cy="0.5" r="0.725" gradientUnits="objectBoundingBox">
      <stop offset="0" stop-color="#ffddb7"/>
      <stop offset="1" stop-color="#ffb02c"/>
    </radialGradient>
    <radialGradient id="radial-gradient-2" cx="0.088" cy="0.5" r="1.076" gradientTransform="translate(0 0)" gradientUnits="objectBoundingBox">
      <stop offset="0" stop-color="#ffb02c"/>
      <stop offset="1" stop-color="#ffddb7"/>
    </radialGradient>
    <radialGradient id="radial-gradient-3" cx="0.951" cy="0.5" r="0.784" gradientTransform="translate(1.903 1.183) rotate(180) scale(1 1.365)" gradientUnits="objectBoundingBox">
      <stop offset="0" stop-color="#ffae2a"/>
      <stop offset="1" stop-color="#fee9ae"/>
    </radialGradient>
    <radialGradient id="radial-gradient-4" cx="0.558" cy="0.5" r="0.907" gradientTransform="matrix(-0.687, 0.727, -0.712, -0.673, 1.297, 0.431)" gradientUnits="objectBoundingBox">
      <stop offset="0" stop-color="#fee9ae"/>
      <stop offset="1" stop-color="#ffae2a"/>
    </radialGradient>
    <radialGradient id="radial-gradient-5" cx="0.026" cy="0.5" r="0.974" gradientTransform="translate(0 0)" xlink:href="#radial-gradient-4"/>
    <radialGradient id="radial-gradient-6" cx="0.222" cy="0.5" r="0.874" gradientTransform="translate(0 0)" xlink:href="#radial-gradient"/>
  </defs>
  <g id="Multiple_Session" data-name="Multiple Session" transform="translate(-1 -3.972)">
    <g id="_3-User" data-name="3-User" transform="translate(1 4)">
      <path id="Fill-6" d="M21.672,6.912a4.881,4.881,0,0,0-5.683-6.1.187.187,0,0,0-.113.068.142.142,0,0,0,.023.151,8.035,8.035,0,0,1,.115,9.091.218.218,0,0,0,.146.336,4.513,4.513,0,0,0,.665.064,4.831,4.831,0,0,0,4.847-3.606" transform="translate(5.949 0.265)" fill="url(#radial-gradient)"/>
      <path id="Fill-11" d="M7.639.807a4.832,4.832,0,0,0-.975-.1,4.913,4.913,0,0,0-4.707,6.2A4.828,4.828,0,0,0,6.8,10.518a4.669,4.669,0,0,0,.665-.064.218.218,0,0,0,.147-.336A8.032,8.032,0,0,1,7.73,1.026.142.142,0,0,0,7.753.875.178.178,0,0,0,7.639.807" transform="translate(0.672 0.265)" fill="url(#radial-gradient-2)"/>
      <path id="Fill-8" d="M23.837,11.413a3.788,3.788,0,0,0-2.93-1.793,21.389,21.389,0,0,0-4.459-.39.051.051,0,0,0-.044.035.063.063,0,0,0,.039.066c.834.415,4.055,2.219,3.65,6.024a.249.249,0,0,0,.278.282c.793-.114,2.833-.555,3.466-1.928a2.643,2.643,0,0,0,0-2.3" transform="translate(6.151 3.46)" fill="url(#radial-gradient-3)"/>
      <path id="Fill-13" d="M3.192,9.62A3.786,3.786,0,0,0,.263,11.413a2.638,2.638,0,0,0,0,2.3c.633,1.372,2.673,1.814,3.466,1.927a.248.248,0,0,0,.277-.282C3.6,11.55,6.823,9.746,7.658,9.331A.065.065,0,0,0,7.7,9.264a.046.046,0,0,0-.043-.033,21.335,21.335,0,0,0-4.461.389" transform="translate(0 3.46)" fill="url(#radial-gradient-4)"/>
      <g id="Iconly_Bulk_Profile" data-name="Iconly/Bulk/Profile" transform="translate(2 -3.028)">
        <g id="Profile" transform="translate(4 3)">
          <path id="Fill-1" d="M8.8,13.175c-4.744,0-8.8.748-8.8,3.74s4.027,3.768,8.8,3.768c4.744,0,8.8-.747,8.8-3.74s-4.026-3.768-8.8-3.768" transform="translate(0 1.318)" fill="url(#radial-gradient-5)"/>
          <path id="Fill-4" d="M8.526,11.642A5.821,5.821,0,1,0,2.705,5.821a5.8,5.8,0,0,0,5.821,5.821" transform="translate(0.271 0)" fill="url(#radial-gradient-6)"/>
        </g>
      </g>
    </g>
  </g>
</svg>
