<svg xmlns="http://www.w3.org/2000/svg" width="16" height="16" viewBox="0 0 16 16">
  <g id="Time" transform="translate(-2 -2)">
    <g id="Time-Circle" transform="translate(2 2)">
      <path id="Fill-1" d="M16,8A8,8,0,1,1,8,0a8,8,0,0,1,8,8" fill="#af0a62" opacity="0.4"/>
      <path id="Fill-4" d="M12.639,12.037a.6.6,0,0,1-.307-.084L9.191,10.079A.6.6,0,0,1,8.9,9.563V5.525a.6.6,0,0,1,1.2,0v3.7l2.848,1.7a.6.6,0,0,1-.308,1.116" transform="translate(-1.78 -0.985)" fill="#af0a62"/>
    </g>
  </g>
</svg>
