<svg id="Arrow_enter" data-name="Arrow enter" xmlns="http://www.w3.org/2000/svg" width="48" height="48" viewBox="0 0 48 48">
  <path id="Path_6466" data-name="Path 6466" d="M33.792,0C42.288,0,48,5.472,48,13.608h0V34.416C48,42.55,42.288,48,33.792,48H14.184C5.712,48,0,42.55,0,34.416H0V13.608C0,5.472,5.712,0,14.184,0H33.792ZM26.04,13.728a1.811,1.811,0,0,0-2.544,0,1.84,1.84,0,0,0,0,2.568h0l5.952,5.9H14.208a1.8,1.8,0,1,0,0,3.6h15.24L23.5,31.728A1.841,1.841,0,0,0,22.968,33a1.89,1.89,0,0,0,.528,1.272,1.811,1.811,0,0,0,2.544,0h0l9.048-9a1.857,1.857,0,0,0,0-2.544h0Z" transform="translate(0 0)" fill="#6d093e"/>
</svg>
