<svg xmlns="http://www.w3.org/2000/svg" width="22" height="32" viewBox="0 0 22 32">
  <path id="microphone" d="M12.5,22a6,6,0,0,0,6-6h-5a1,1,0,0,1,0-2h5V12h-5a1,1,0,0,1,0-2h5V7.947h-5a1,1,0,0,1,0-2L18.5,6a6,6,0,0,0-12,0V16A5.967,5.967,0,0,0,12.5,22ZM22,12a1.483,1.483,0,0,0-1.5,1.447V16a8.009,8.009,0,0,1-8.52,7.98,8.41,8.41,0,0,1-7.48-8.3V13.447a1.5,1.5,0,0,0-3,0v2.007A11.336,11.336,0,0,0,11,26.807V29H8.5a2,2,0,0,0-2,2.1.986.986,0,0,0,1,.9h10a.986.986,0,0,0,1-.9,2,2,0,0,0-2-2.1H14V26.887A11.012,11.012,0,0,0,23.5,16V13.447A1.483,1.483,0,0,0,22,12Z" transform="translate(-1.5)" fill="#fff"/>
</svg>
