<svg id="Edit" xmlns="http://www.w3.org/2000/svg" width="18" height="18" viewBox="0 0 18 18">
  <g id="Iconly_Bulk_Edit" data-name="Iconly/Bulk/Edit" transform="translate(-3 -3)">
    <g id="Edit-2" data-name="Edit" transform="translate(3 3)">
      <path id="Fill-1" d="M16.993,15.953H11.3A1.023,1.023,0,0,0,11.3,18h5.694a1.023,1.023,0,0,0,0-2.047" fill="#7b2854" opacity="0.5"/>
      <path id="Fill-3" d="M7.309,3.9l5.4,4.36a.31.31,0,0,1,.051.429l-6.4,8.335a2.1,2.1,0,0,1-1.63.817l-3.492.043a.4.4,0,0,1-.392-.312L.052,14.126a2.137,2.137,0,0,1,.4-1.8L6.883,3.955A.3.3,0,0,1,7.309,3.9" fill="#7b2854"/>
      <path id="Fill-5" d="M15.121,5.665l-1.04,1.3a.3.3,0,0,1-.423.048c-1.265-1.023-4.5-3.65-5.4-4.377A.308.308,0,0,1,8.213,2.2l1-1.246A2.572,2.572,0,0,1,12.994.7l1.471,1.172a3.066,3.066,0,0,1,1.143,1.752,2.406,2.406,0,0,1-.487,2.042" fill="#7b2854" opacity="0.5"/>
    </g>
  </g>
</svg>
