<svg xmlns="http://www.w3.org/2000/svg" xmlns:xlink="http://www.w3.org/1999/xlink" width="26" height="26" viewBox="0 0 26 26">
  <defs>
    <filter id="Fill-1" x="0" y="0" width="26" height="26" filterUnits="userSpaceOnUse">
      <feOffset dy="2" input="SourceAlpha"/>
      <feGaussianBlur stdDeviation="1" result="blur"/>
      <feFlood flood-opacity="0.161"/>
      <feComposite operator="in" in2="blur"/>
      <feComposite in="SourceGraphic"/>
    </filter>
  </defs>
  <g id="Completed_Events" data-name="Completed Events" transform="translate(1 -1)">
    <g id="Tick-Square" transform="translate(2 2)">
      <g transform="matrix(1, 0, 0, 1, -3, -1)" filter="url(#Fill-1)">
        <path id="Fill-1-2" data-name="Fill-1" d="M14.34,0H5.67C2.28,0,0,2.38,0,5.92v8.17C0,17.62,2.28,20,5.67,20h8.67C17.73,20,20,17.62,20,14.09V5.92C20,2.38,17.73,0,14.34,0" transform="translate(3 1)" fill="#0c8925" opacity="0.4"/>
      </g>
      <path id="Fill-4" d="M8.813,13.248a.872.872,0,0,1-.619-.256L5.821,10.619A.875.875,0,0,1,7.058,9.381l1.755,1.755,4.128-4.128a.875.875,0,0,1,1.237,1.238L9.432,12.992a.872.872,0,0,1-.619.256" fill="#0c8925"/>
    </g>
  </g>
</svg>
