<svg xmlns="http://www.w3.org/2000/svg" width="17" height="17" viewBox="0 0 17 17">
  <g id="Editor_name_card" data-name="Editor name card" transform="translate(-3 -3)">
    <g id="Edit" transform="translate(3 3)">
      <path id="Fill-1" d="M16.62,15.953H11.242a.967.967,0,0,0,0,1.933H16.62a.967.967,0,0,0,0-1.933" transform="translate(-0.572 -0.886)" fill="#8a1a56" opacity="0.4"/>
      <path id="Fill-3" d="M6.9,3.9,12,8.018a.293.293,0,0,1,.048.405L6.005,16.3a1.983,1.983,0,0,1-1.539.772l-3.3.041a.376.376,0,0,1-.37-.294l-.75-3.259a2.019,2.019,0,0,1,.38-1.7L6.5,3.949A.283.283,0,0,1,6.9,3.9" transform="translate(0 -0.213)" fill="#8a1a56"/>
      <path id="Fill-5" d="M14.733,5.351l-.982,1.226a.282.282,0,0,1-.4.046C12.156,5.656,9.1,3.176,8.25,2.489a.291.291,0,0,1-.041-.408L9.156.9A2.429,2.429,0,0,1,12.724.66l1.389,1.107a2.9,2.9,0,0,1,1.079,1.655,2.273,2.273,0,0,1-.46,1.929" transform="translate(-0.452 0)" fill="#8a1a56" opacity="0.4"/>
    </g>
  </g>
</svg>
