<svg xmlns="http://www.w3.org/2000/svg" width="21.6" height="24" viewBox="0 0 21.6 24">
  <g id="list_active" data-name="list active" transform="translate(-3 -2)">
    <g id="Document" transform="translate(3 2)">
      <path id="Path" d="M15.829,0H5.772C2.124,0,0,2.136,0,5.8v12.4C0,21.912,2.124,24,5.772,24H15.829c3.707,0,5.771-2.088,5.771-5.808V5.8c0-3.66-2.064-5.8-5.771-5.8" fill="#901959" opacity="0.4"/>
      <path id="Combined-Shape" d="M5.254,15.558h9.408a.948.948,0,0,1,0,1.884H5.254a.932.932,0,0,1-.9-.432.954.954,0,0,1,0-1.008A.941.941,0,0,1,5.254,15.558Zm9.408-5.473a.937.937,0,0,1,0,1.873H5.254a.937.937,0,0,1,0-1.873ZM8.841,4.65a.942.942,0,0,1,0,1.884H5.254a.936.936,0,0,1,0-1.872V4.65Z" transform="translate(0.842 0.93)" fill="#901959"/>
    </g>
  </g>
</svg>
