<svg xmlns="http://www.w3.org/2000/svg" xmlns:xlink="http://www.w3.org/1999/xlink" width="29.75" height="25" viewBox="0 0 29.75 25">
  <defs>
    <filter id="Fill-1" x="0" y="0.001" width="19.954" height="24.999" filterUnits="userSpaceOnUse">
      <feOffset dy="2" input="SourceAlpha"/>
      <feGaussianBlur stdDeviation="1" result="blur"/>
      <feFlood flood-opacity="0.161"/>
      <feComposite operator="in" in2="blur"/>
      <feComposite in="SourceGraphic"/>
    </filter>
    <filter id="Fill-4" x="13.954" y="0" width="15.796" height="25" filterUnits="userSpaceOnUse">
      <feOffset dy="2" input="SourceAlpha"/>
      <feGaussianBlur stdDeviation="1" result="blur-2"/>
      <feFlood flood-opacity="0.161"/>
      <feComposite operator="in" in2="blur-2"/>
      <feComposite in="SourceGraphic"/>
    </filter>
  </defs>
  <g id="Total_Events" data-name="Total Events" transform="translate(1 -3)">
    <g id="Ticket" transform="translate(2 4)">
      <g transform="matrix(1, 0, 0, 1, -3, -1)" filter="url(#Fill-1)">
        <path id="Fill-1-2" data-name="Fill-1" d="M13.954,6.772v-2.4a.856.856,0,0,1-.861-.837V.681a.686.686,0,0,0-.7-.681H4.5A4.445,4.445,0,0,0,0,4.374V7.262a.825.825,0,0,0,.253.592A.877.877,0,0,0,.861,8.1,1.444,1.444,0,0,1,2.4,9.493,1.513,1.513,0,0,1,.873,10.988.822.822,0,0,0,0,11.78v2.857A4.434,4.434,0,0,0,4.49,19h7.9a.687.687,0,0,0,.7-.68V15.908a.849.849,0,0,1,.861-.837V12.908a.856.856,0,0,1-.861-.837V7.609a.856.856,0,0,1,.861-.837" transform="translate(3 1)" fill="#0b428a" opacity="0.4"/>
      </g>
      <g transform="matrix(1, 0, 0, 1, -3, -1)" filter="url(#Fill-4)">
        <path id="Fill-4-2" data-name="Fill-4" d="M19.146,9.494a1.522,1.522,0,0,0,1.527,1.495.821.821,0,0,1,.873.781v2.867A4.427,4.427,0,0,1,17.056,19H13.312a.7.7,0,0,1-.7-.682v-2.41a.841.841,0,0,0-.861-.837V12.909a.849.849,0,0,0,.861-.837V7.61a.847.847,0,0,0-.861-.837v-2.4a.848.848,0,0,0,.861-.837V.682a.694.694,0,0,1,.7-.682h3.744a4.427,4.427,0,0,1,4.49,4.362V7.173a.822.822,0,0,1-.253.591.873.873,0,0,1-.609.245,1.516,1.516,0,0,0-1.539,1.484" transform="translate(5.2 1)" fill="#0b428a"/>
      </g>
    </g>
  </g>
</svg>
