<svg xmlns="http://www.w3.org/2000/svg" width="22" height="22" viewBox="0 0 22 22">
  <g id="Dashboard" transform="translate(-1 -1)">
    <g id="Chart" transform="translate(1 1)">
      <path id="Combined-Shape" d="M15.795,0C19.506,0,22,2.605,22,6.482v9.035C22,19.395,19.506,22,15.795,22H6.205C2.494,22,0,19.395,0,15.518V6.482C0,2.605,2.494,0,6.205,0Zm0,1.535H6.205c-2.836,0-4.67,1.941-4.67,4.947v9.035c0,3.006,1.834,4.947,4.67,4.947h9.59c2.837,0,4.67-1.941,4.67-4.947V6.482C20.465,3.476,18.632,1.535,15.795,1.535ZM6.263,8.393a.768.768,0,0,1,.767.767v7.02a.767.767,0,0,1-1.535,0V9.161A.768.768,0,0,1,6.263,8.393Zm4.776-3.36a.768.768,0,0,1,.767.767V16.179a.767.767,0,1,1-1.535,0V5.8A.768.768,0,0,1,11.039,5.033Zm4.7,7.07a.768.768,0,0,1,.767.767v3.309a.767.767,0,1,1-1.535,0V12.87A.768.768,0,0,1,15.736,12.1Z" fill="#757575" fill-rule="evenodd"/>
    </g>
  </g>
</svg>
