<svg xmlns="http://www.w3.org/2000/svg" width="22" height="22" viewBox="0 0 22 22">
  <g id="Dashboard_active" data-name="Dashboard active" transform="translate(-2 -2)">
    <g id="Chart" transform="translate(2 2)">
      <path id="Path_6524" data-name="Path 6524" d="M16.136,0C19.877,0,21.989,2.122,22,5.863h0V16.137C22,19.877,19.877,22,16.136,22H5.863C2.122,22,0,19.877,0,16.137H0V5.863C0,2.122,2.122,0,5.863,0H16.136ZM11.55,4.543a.924.924,0,0,0-1.409.869h0V16.621a.927.927,0,0,0,.913.825.909.909,0,0,0,.913-.825h0V5.412A.9.9,0,0,0,11.55,4.543ZM6.413,8.151a.905.905,0,0,0-.968,0,.925.925,0,0,0-.429.869h0v7.6a.917.917,0,0,0,1.825,0h0V9.02A.926.926,0,0,0,6.413,8.151ZM16.6,12.144a.922.922,0,0,0-.978,0,.886.886,0,0,0-.418.869h0v3.608a.909.909,0,0,0,.913.825.927.927,0,0,0,.913-.825h0V13.013A.918.918,0,0,0,16.6,12.144Z" transform="translate(0 0)" fill="#e3cddb"/>
    </g>
  </g>
</svg>
