<svg xmlns="http://www.w3.org/2000/svg" width="18.885" height="22" viewBox="0 0 18.885 22">
  <g id="Form_setup_inactive" data-name="Form setup inactive" transform="translate(-3.001 -2)">
    <g id="Paper" transform="translate(3.001 2)">
      <path id="Combined-Shape" d="M12.155,0a.834.834,0,0,1,.14.012h.152a.833.833,0,0,1,.6.255l5.609,5.844a.83.83,0,0,1,.232.575V16.837A5.114,5.114,0,0,1,13.959,22h-9A5.079,5.079,0,0,1,0,17.058V4.973A5.092,5.092,0,0,1,5.062.013h6.953A.834.834,0,0,1,12.155,0Zm-.831,1.673H5.065a3.418,3.418,0,0,0-3.4,3.319V16.837a3.419,3.419,0,0,0,3.332,3.5h8.931a3.455,3.455,0,0,0,3.3-3.5V7.734H15a3.69,3.69,0,0,1-3.675-3.682Zm.624,12.29a.831.831,0,0,1,0,1.661H5.968a.831.831,0,1,1,0-1.661ZM9.683,9.808a.831.831,0,1,1,0,1.661H5.967a.831.831,0,1,1,0-1.661Zm3.3-7.2V4.052A2.025,2.025,0,0,0,15,6.074h1.313Z" transform="translate(-0.001 0)" fill="#757575" fill-rule="evenodd"/>
    </g>
  </g>
</svg>
