<svg xmlns="http://www.w3.org/2000/svg" width="24.638" height="19" viewBox="0 0 24.638 19">
  <g id="Registration_active" data-name="Registration active" transform="translate(-1 -4)">
    <g id="_3-User" data-name="3-User" transform="translate(1 4)">
      <path id="_3-Friends" data-name="3-Friends" d="M12.262,12.516c3.843,0,7.124.646,7.124,3.231S16.125,19,12.262,19c-3.843,0-7.124-.646-7.124-3.23S8.4,12.516,12.262,12.516Zm6.144-1.556a16.459,16.459,0,0,1,3.632.337,3.079,3.079,0,0,1,2.387,1.549,2.408,2.408,0,0,1,0,1.983c-.515,1.186-2.177,1.567-2.823,1.665a.209.209,0,0,1-.227-.244,5.3,5.3,0,0,0-2.973-5.2.054.054,0,0,1-.032-.056A.043.043,0,0,1,18.406,10.959Zm-12.449,0,.277,0a.042.042,0,0,1,.035.03.056.056,0,0,1-.031.057,5.3,5.3,0,0,0-2.974,5.2.21.21,0,0,1-.226.245c-.646-.1-2.307-.479-2.823-1.665a2.4,2.4,0,0,1,0-1.983A3.08,3.08,0,0,1,2.6,11.3a16.552,16.552,0,0,1,3.633-.336ZM12.262,0a4.86,4.86,0,0,1,4.714,5.027,4.862,4.862,0,0,1-4.714,5.028A4.862,4.862,0,0,1,7.548,5.027,4.86,4.86,0,0,1,12.262,0Zm6.4.838A4.2,4.2,0,0,1,22.5,6.2a3.972,3.972,0,0,1-3.948,3.113,3.594,3.594,0,0,1-.541-.056.191.191,0,0,1-.119-.29,7.141,7.141,0,0,0,1.1-3.849,7.184,7.184,0,0,0-1.2-4,.128.128,0,0,1-.018-.13.144.144,0,0,1,.092-.059A3.712,3.712,0,0,1,18.661.838ZM5.976.838A3.727,3.727,0,0,1,6.77.925a.151.151,0,0,1,.092.059.131.131,0,0,1-.018.13,7.184,7.184,0,0,0-1.2,4,7.142,7.142,0,0,0,1.1,3.849.191.191,0,0,1-.119.29,3.473,3.473,0,0,1-.541.056A3.972,3.972,0,0,1,2.141,6.2,4.2,4.2,0,0,1,5.976.838Z" transform="translate(0 0)" fill="#e3cddb"/>
    </g>
  </g>
</svg>
