<svg xmlns="http://www.w3.org/2000/svg" width="21.455" height="26" viewBox="0 0 21.455 26">
  <path id="Az_logo_header" data-name="Az logo header" d="M3579.068,4031.123c-.227.147-.458.288-.686.442-2.642-1.466-8.325-4.3-8.813-4.553-.526-.272-1.447-.644-1.328-1.517.162-1.227,2.292-3.917,3.2-5.019,4.9-5.992,7.093-7.838,8.547-7.646,1.551.2,2.415,1.807,2.516,9.313-.866-.268-1.82-.541-2.839-.795-.085-1.091-.289-2.735-.363-3.307-.087-.645-.211-.885-.474-.919-.288-.038-1.005.646-1.654,1.313-.293.3-1.128,1.143-2.044,2.067a1.688,1.688,0,0,0-1.563.485,1.374,1.374,0,0,0-.14,1.233c-.5.492-.926.924-1.2,1.2-1.02,1.016-2.1,1.86-2.156,2.272-.049.338.471.688,1.208,1.127C3573.075,4027.895,3577.5,4030.282,3579.068,4031.123Zm6.87-7.494a53.137,53.137,0,0,0-10.5-2.789c-1.55-.2-2.178.349-1.535,1.825a23.807,23.807,0,0,0,3.972,5.735c1.71,1.829,3.563,2.325,4.153-.5.021-.1.04-.2.057-.3a19.908,19.908,0,0,0,.306-2.046c-.757-.343-1.609-.71-2.458-1.07.048.646.124,1.763.167,2.626,0,.109.009.217.01.321.054,1.39-.422,1.39-1.215.817-.923-.663-3.754-4.394-4.078-6.046-.016-.1.037-.111.094-.09a.307.307,0,0,1,.068.025l.009,0h0c.638.249,2.763,1.089,4.923,2,.864.362,1.727.737,2.5,1.086s1.449.672,1.958.944c.933.5,1.295.84.906,1.238-1.942,1.97-8.726,4.779-11.07,8.247a.117.117,0,0,1-.023.032,1.078,1.078,0,0,0-.08.129c-.005.007-.012.023-.018.033a3.061,3.061,0,0,0-.337,1.031c-.1.762.3,1.452,1.385,1.743a4.624,4.624,0,0,0,.922.174c.057,0,.126.01.191.012a32.41,32.41,0,0,0,9.172-1.819c1.709-.757,1.2-1.516.7-1.909-.37-.294-2.272-1.353-3.191-1.861-.247.159-.445.282-.686.44a26.281,26.281,0,0,1,2.557,1.714c.139.109.063.24-.146.254-.059,0-.106.008-.172.016-1.487.1-4.306.3-5.635.373-.191.01-.407.016-.534.023a9.035,9.035,0,0,1,.884-.709c2.831-1.995,7.554-4.794,8.944-6C3589.165,4028.444,3591.959,4025.731,3585.938,4023.629Z" transform="translate(-3568.23 -4012.818)" fill="#e88c02"/>
</svg>
