<svg xmlns="http://www.w3.org/2000/svg" width="23" height="23" viewBox="0 0 23 23">
  <g id="Group_9186" data-name="Group 9186" transform="translate(-347 -22)">
    <path id="Subtraction_3" data-name="Subtraction 3" d="M2103.7-4173a11.425,11.425,0,0,1-8.131-3.368,11.423,11.423,0,0,1-3.368-8.131,11.426,11.426,0,0,1,3.368-8.132A11.422,11.422,0,0,1,2103.7-4196a11.425,11.425,0,0,1,8.132,3.369,11.427,11.427,0,0,1,3.368,8.132,11.424,11.424,0,0,1-3.368,8.131A11.427,11.427,0,0,1,2103.7-4173Zm0-9.413c-3.316,0-4.928.73-4.928,2.233s1.612,2.251,4.928,2.251,4.928-.731,4.928-2.234S2107.016-4182.414,2103.7-4182.414Zm0-8.657a3.144,3.144,0,0,0-2.309,1.014,3.576,3.576,0,0,0-.952,2.462,3.577,3.577,0,0,0,.952,2.462,3.143,3.143,0,0,0,2.309,1.015,3.144,3.144,0,0,0,2.31-1.015,3.578,3.578,0,0,0,.951-2.462,3.575,3.575,0,0,0-.951-2.462A3.146,3.146,0,0,0,2103.7-4191.071Z" transform="translate(-1745.2 4218)" fill="#fff"/>
  </g>
</svg>
