<svg id="Group_4298" data-name="Group 4298" xmlns="http://www.w3.org/2000/svg" width="90.728" height="22" viewBox="0 0 90.728 22">
  <path id="Path_3219" data-name="Path 3219" d="M3501.243,4030.025l1.494-4.058,1.425,4.058Zm4.368,4.086h1.371l-3.555-9.762h-1.353l-3.719,9.762h1.381l1.091-2.995h3.722Zm6.5-2.067c0,.793-.649,1.217-1.748,1.217a1.886,1.886,0,0,1-1.821-.825l-1.317.232a3.114,3.114,0,0,0,3.08,1.553c2.04,0,3.108-1.132,3.108-2.333,0-1.548-1.426-1.967-3.066-2.3-.8-.159-1.722-.451-1.722-1.153,0-.5.489-1.081,1.464-1.081a1.864,1.864,0,0,1,1.687.952l1.155-.485a2.884,2.884,0,0,0-2.7-1.42c-1.715,0-2.853.847-2.853,2.194,0,1.527,1.313,1.823,2.581,2.1C3511.054,4030.934,3512.11,4031.2,3512.11,4032.043Zm4.035-7.694-1.284.535v1.8h-1.175v1.034h1.175v4.769c-.014.966-.014,1.668,1.427,1.668a7.981,7.981,0,0,0,1.206-.125v-1.027a3.111,3.111,0,0,1-.815.17c-.533,0-.533-.374-.533-1.251v-4.2h1.348v-1.034h-1.348Zm2.472,2.339v7.422h1.246V4030.7a3.781,3.781,0,0,1,.314-1.927c.405-.654,1-.909,2.224-.918v-1.282a2.672,2.672,0,0,0-2.539,1.448v-1.328Zm11.155-2.334v1.2h5.548l-5.551,7.284v1.269h7.169v-1.17h-5.665l5.523-7.373v-1.213Zm14.971,2.334v7.422h1.242V4029.9a2.047,2.047,0,0,1,.546-1.658,1.941,1.941,0,0,1,1.426-.562,1.567,1.567,0,0,1,1.586,1.016,4.008,4.008,0,0,1,.081,1.222v4.192h1.24v-4.4a5.386,5.386,0,0,0-.128-1.517,2.442,2.442,0,0,0-2.438-1.7,2.609,2.609,0,0,0-2.313,1.322v-1.129Zm19.342,5.625a1.765,1.765,0,0,1-1.715.969c-.836,0-2.241-.529-2.241-2.973,0-.66.118-2.991,2.164-2.991a1.754,1.754,0,0,1,1.732,1.045l1.166-.485a3.318,3.318,0,0,0-2.942-1.478c-2.365,0-3.5,1.905-3.5,4,0,1.815.99,3.835,3.611,3.835a3.127,3.127,0,0,0,2.827-1.462Zm-25.358-2.687h3.934c-.111-1.94-1.229-2.271-1.976-2.271C3539.621,4027.357,3538.868,4028.141,3538.727,4029.627Zm4.96,3.063a3.1,3.1,0,0,1-2.86,1.548c-2.192,0-3.451-1.489-3.451-3.984,0-2.785,1.838-3.853,3.4-3.853a3.083,3.083,0,0,1,3.1,2.618,6.687,6.687,0,0,1,.14,1.5h-5.33c-.031,1.239.489,2.807,2.242,2.781a1.774,1.774,0,0,0,1.541-.846Zm9.194-3.063h3.937c-.112-1.94-1.233-2.271-1.977-2.271C3553.779,4027.357,3553.024,4028.141,3552.882,4029.627Zm4.962,3.063a3.093,3.093,0,0,1-2.86,1.548c-2.189,0-3.449-1.489-3.449-3.984,0-2.785,1.838-3.853,3.4-3.853a3.08,3.08,0,0,1,3.105,2.618,6.767,6.767,0,0,1,.138,1.5h-5.327c-.032,1.239.487,2.807,2.241,2.781a1.778,1.778,0,0,0,1.542-.846Zm14.15,1.42-1.3,0a8.723,8.723,0,0,1-.149-1.09,3.182,3.182,0,0,1-2.485,1.2,2.246,2.246,0,0,1-2.508-2.109,2.036,2.036,0,0,1,.327-1.115c.428-.627,1.212-1.128,3.42-1.3l1.176-.1v-.186c0-.77,0-2.054-1.657-2.054-1.042,0-1.395.5-1.514.962l-1.146-.483c.019-.041.039-.077.06-.12a2.7,2.7,0,0,1,2.555-1.319,3.673,3.673,0,0,1,2.155.629,2.514,2.514,0,0,1,.812,1.86l.048,3.8A5.784,5.784,0,0,0,3571.994,4034.111Zm-1.706-2.049c.189-.408.2-.573.2-1.659-.485.074-1.141.17-1.939.343-1.382.3-1.617.817-1.617,1.336,0,.592.472,1.1,1.4,1.1A2.008,2.008,0,0,0,3570.288,4032.062Zm-41.4,2.049-1.293,0a8.081,8.081,0,0,1-.15-1.09,3.206,3.206,0,0,1-2.485,1.2,2.248,2.248,0,0,1-2.511-2.109,2,2,0,0,1,.327-1.115c.425-.627,1.212-1.128,3.425-1.3l1.17-.1v-.186c0-.77,0-2.054-1.654-2.054-1.042,0-1.393.5-1.518.962l-1.147-.48c.02-.041.042-.08.062-.122a2.708,2.708,0,0,1,2.558-1.319,3.654,3.654,0,0,1,2.155.634,2.5,2.5,0,0,1,.809,1.856l.047,3.806A5.936,5.936,0,0,0,3528.889,4034.111Zm-1.7-2.049a3.238,3.238,0,0,0,.2-1.659c-.487.074-1.139.17-1.94.343-1.382.3-1.618.817-1.618,1.336,0,.592.474,1.1,1.4,1.1A2.012,2.012,0,0,0,3527.186,4032.062Z" transform="translate(-3498.356 -4012.373)" fill="#830051"/>
  <path id="Path_3220" data-name="Path 3220" d="M3577.4,4028.308c-.191.125-.387.244-.58.374-2.235-1.241-7.044-3.637-7.458-3.853-.444-.229-1.224-.544-1.123-1.283.137-1.039,1.939-3.314,2.7-4.247,4.144-5.069,6-6.631,7.232-6.469,1.313.17,2.044,1.529,2.129,7.881-.732-.227-1.54-.458-2.4-.673-.072-.924-.244-2.315-.308-2.8-.073-.545-.178-.749-.4-.777-.243-.032-.851.546-1.4,1.109-.248.252-.954.968-1.73,1.75a1.428,1.428,0,0,0-1.322.411,1.162,1.162,0,0,0-.119,1.043c-.422.416-.783.781-1.013,1.01-.863.86-1.781,1.575-1.824,1.924-.04.286.4.582,1.023.953C3572.33,4025.576,3576.076,4027.6,3577.4,4028.308Zm5.813-6.341a45,45,0,0,0-8.886-2.359c-1.313-.17-1.843.295-1.3,1.544a20.137,20.137,0,0,0,3.36,4.852c1.447,1.548,3.015,1.967,3.514-.42.018-.085.034-.172.048-.253a16.878,16.878,0,0,0,.259-1.732c-.64-.29-1.362-.6-2.08-.9.041.546.105,1.491.141,2.222,0,.093.008.185.008.271.046,1.176-.357,1.176-1.028.692-.781-.562-3.175-3.719-3.449-5.117-.014-.087.03-.093.079-.077a.3.3,0,0,1,.058.021l.007,0h0c.539.211,2.338.921,4.165,1.692.732.307,1.462.624,2.12.919s1.226.568,1.657.8c.79.424,1.1.71.766,1.047-1.643,1.668-7.383,4.044-9.366,6.979a.106.106,0,0,1-.019.027.869.869,0,0,0-.067.108.29.29,0,0,0-.016.028,2.6,2.6,0,0,0-.285.873c-.085.645.252,1.229,1.171,1.475a3.893,3.893,0,0,0,.78.147c.049,0,.107.008.162.01a27.417,27.417,0,0,0,7.76-1.54c1.446-.64,1.015-1.282.594-1.615-.312-.249-1.922-1.145-2.7-1.575-.209.134-.377.238-.58.372a22.307,22.307,0,0,1,2.163,1.45c.117.093.054.2-.123.215l-.146.014c-1.257.085-3.644.254-4.769.315-.162.008-.344.014-.452.019a7.584,7.584,0,0,1,.748-.6c2.4-1.688,6.392-4.057,7.568-5.078C3585.944,4026.041,3588.308,4023.746,3583.214,4021.967Z" transform="translate(-3495.656 -4012.819)" fill="#e88c02"/>
</svg>
