<svg xmlns="http://www.w3.org/2000/svg" width="23" height="23" viewBox="0 0 23 23">
  <path id="Path_6554" data-name="Path 6554" d="M30.2,18.7A11.5,11.5,0,1,0,18.7,30.2,11.5,11.5,0,0,0,30.2,18.7ZM19.85,21.13H17.29v-.705a3.182,3.182,0,0,1,.39-1.609,5.619,5.619,0,0,1,1.444-1.465,5.883,5.883,0,0,0,1.335-1.164,1.638,1.638,0,0,0,.329-1.02,1.106,1.106,0,0,0-.459-.951,2.284,2.284,0,0,0-1.3-.315,7.486,7.486,0,0,0-3.286.938l-1.054-2.1a9.15,9.15,0,0,1,4.552-1.218,4.887,4.887,0,0,1,3.156.951,3.122,3.122,0,0,1,1.164,2.546,3.293,3.293,0,0,1-.472,1.828,6.611,6.611,0,0,1-1.828,1.739A5.857,5.857,0,0,0,20.1,19.617a1.662,1.662,0,0,0-.246.938Zm-2.416,4.5a1.9,1.9,0,0,1-.014-2.43,1.743,1.743,0,0,1,1.266-.411,1.738,1.738,0,0,1,1.232.424,1.61,1.61,0,0,1,.438,1.218,1.554,1.554,0,0,1-.438,1.177,1.661,1.661,0,0,1-1.232.445A1.734,1.734,0,0,1,17.434,25.634Z" transform="translate(-7.2 -7.2)" fill="#fff"/>
</svg>
