<svg id="Notification" xmlns="http://www.w3.org/2000/svg" width="18.7" height="22" viewBox="0 0 18.7 22">
  <path id="Path_5185" data-name="Path 5185" d="M7.109,18.951a28.438,28.438,0,0,1,4.451,0c.47.109.978.362.978.916a1.713,1.713,0,0,1-.764,1.292,4,4,0,0,1-1.885.8,4.174,4.174,0,0,1-1.109,0A3.98,3.98,0,0,1,6.9,21.158a1.707,1.707,0,0,1-.765-1.291C6.131,19.313,6.639,19.059,7.109,18.951ZM9.4,0a7.746,7.746,0,0,1,6.014,2.887,6.1,6.1,0,0,1,1.314,4.12h0v.469A4.275,4.275,0,0,0,17.9,10.61a3.7,3.7,0,0,1,.8,2.541,3.976,3.976,0,0,1-.949,2.616,4.99,4.99,0,0,1-3.19,1.554c-1.728.147-3.458.271-5.21.271a45.8,45.8,0,0,1-5.21-.271A4.985,4.985,0,0,1,.95,15.767,3.977,3.977,0,0,1,0,13.152,3.7,3.7,0,0,1,.8,10.61a4.177,4.177,0,0,0,1.17-3.134h0V7.007A6.19,6.19,0,0,1,3.385,2.763,7.781,7.781,0,0,1,9.3,0h.1Z" transform="translate(0 0)" fill="#fff"/>
</svg>
