<svg xmlns="http://www.w3.org/2000/svg" width="26" height="26" viewBox="0 0 26 26">
  <g id="profile" transform="translate(-347 -22)">
    <circle id="Ellipse_1" data-name="Ellipse 1" cx="13" cy="13" r="13" transform="translate(347 22)" fill="#fff"/>
    <g id="Iconly_Bold_Profile" data-name="Iconly/Bold/Profile" transform="translate(354.429 27.571)">
      <g id="Profile-2" data-name="Profile" transform="translate(0 0)">
        <path id="Path_5357" data-name="Path 5357" d="M5.571,9.786c3.022,0,5.571.524,5.571,2.544s-2.567,2.526-5.571,2.526C2.551,14.857,0,14.333,0,12.313S2.567,9.786,5.571,9.786ZM5.571,0A3.8,3.8,0,0,1,9.258,3.93,3.8,3.8,0,0,1,5.571,7.862,3.8,3.8,0,0,1,1.885,3.93,3.8,3.8,0,0,1,5.571,0Z" transform="translate(0 0)" fill="#6f2754"/>
      </g>
    </g>
  </g>
</svg>
