<svg xmlns="http://www.w3.org/2000/svg" width="16" height="16" viewBox="0 0 16 16">
  <g id="Iconly_Light-Outline_Plus" data-name="Iconly/Light-Outline/Plus" transform="translate(-1 -1)">
    <g id="Plus" transform="translate(1 1)">
      <rect id="Rectangle_4483" data-name="Rectangle 4483" width="15" height="15" rx="4" transform="translate(0.5 0.5)" fill="#bd92a8" opacity="0.5"/>
      <path id="Combined-Shape" d="M11.487,0A4.371,4.371,0,0,1,16,4.714v6.571A4.371,4.371,0,0,1,11.487,16H4.513A4.371,4.371,0,0,1,0,11.286V4.714A4.371,4.371,0,0,1,4.513,0Zm0,1.116H4.513a3.281,3.281,0,0,0-3.4,3.6v6.571a3.281,3.281,0,0,0,3.4,3.6h6.975a3.28,3.28,0,0,0,3.4-3.6V4.714A3.28,3.28,0,0,0,11.487,1.116ZM8,4.709a.558.558,0,0,1,.558.558V7.434h2.17a.558.558,0,1,1,0,1.116H8.558v2.169a.558.558,0,0,1-1.116,0V8.551H5.271a.558.558,0,1,1,0-1.116h2.17V5.267A.558.558,0,0,1,8,4.709Z" fill="#7b2854" fill-rule="evenodd"/>
    </g>
  </g>
</svg>
