<svg xmlns="http://www.w3.org/2000/svg" width="84.5" height="17" viewBox="0 0 84.5 17">
  <g id="Add_field_button_icon" data-name="Add field button icon" transform="translate(-1219.486 -210)">
    <g id="Iconly_Light-Outline_Plus" data-name="Iconly/Light-Outline/Plus" transform="translate(1219.486 210.5)">
      <g id="Plus">
        <path id="Combined-Shape" d="M11.487,0A4.371,4.371,0,0,1,16,4.714v6.571A4.371,4.371,0,0,1,11.487,16H4.513A4.371,4.371,0,0,1,0,11.286V4.714A4.371,4.371,0,0,1,4.513,0Zm0,1.116H4.513a3.281,3.281,0,0,0-3.4,3.6v6.571a3.281,3.281,0,0,0,3.4,3.6h6.975a3.28,3.28,0,0,0,3.4-3.6V4.714A3.28,3.28,0,0,0,11.487,1.116ZM8,4.709a.558.558,0,0,1,.558.558V7.434h2.17a.558.558,0,1,1,0,1.116H8.558v2.169a.558.558,0,0,1-1.116,0V8.551H5.271a.558.558,0,1,1,0-1.116h2.17V5.267A.558.558,0,0,1,8,4.709Z" fill="#fff" fill-rule="evenodd"/>
      </g>
    </g>
    <text id="Add_Field" data-name="Add Field" transform="translate(1244.986 224)" fill="#fff" font-size="14" font-family="Lato-Regular, Lato"><tspan x="0" y="0">Add Field</tspan></text>
  </g>
</svg>
