<svg xmlns="http://www.w3.org/2000/svg" width="14.4" height="16" viewBox="0 0 14.4 16">
  <g id="Calendar" transform="translate(-3 -2)">
    <g id="Calendar-2" data-name="Calendar" transform="translate(3 2)">
      <path id="Fill-1" d="M10.44,14.323a.678.678,0,0,1-.656-.68.665.665,0,0,1,.648-.679h.008a.68.68,0,0,1,0,1.359ZM7.216,11.379a.657.657,0,0,1-.68-.639.685.685,0,0,1,.648-.689.665.665,0,0,1,.032,1.328Zm0,2.9a.657.657,0,0,1-.68-.64.684.684,0,0,1,.648-.688.665.665,0,0,1,.032,1.328Zm-3.248-2.9a.657.657,0,0,1-.68-.639.685.685,0,0,1,.648-.689.665.665,0,0,1,.032,1.328Zm-.008,2.9a.657.657,0,0,1-.68-.64.684.684,0,0,1,.648-.688.665.665,0,0,1,.032,1.328Zm5.833-3.551a.652.652,0,1,1,1.3-.032.652.652,0,1,1-1.3.04ZM0,7.257v6.09a3.821,3.821,0,0,0,4.1,4.1H10.29A3.786,3.786,0,0,0,14.4,13.4V7.257Z" transform="translate(0 -1.451)" fill="#811750"/>
      <path id="Fill-4" d="M0,6.1A12.684,12.684,0,0,1,.127,4.4,3.673,3.673,0,0,1,3.637,1.49h7.129A3.712,3.712,0,0,1,14.275,4.4,12.705,12.705,0,0,1,14.4,6.1Z" transform="translate(-0.001 -0.298)" fill="#811750" opacity="0.4"/>
      <path id="Fill-6" d="M5.153,3.672a.6.6,0,0,0,.609-.616V.617a.609.609,0,1,0-1.217,0V3.056a.6.6,0,0,0,.609.616" transform="translate(-0.909 0)" fill="#811750"/>
      <path id="Fill-9" d="M12.543,3.672a.6.6,0,0,0,.609-.616V.617a.609.609,0,1,0-1.217,0V3.056a.6.6,0,0,0,.609.616" transform="translate(-2.387 0)" fill="#811750"/>
    </g>
  </g>
</svg>
