<svg id="Drag" xmlns="http://www.w3.org/2000/svg" width="22" height="22" viewBox="0 0 22 22">
  <path id="Path_6541" data-name="Path 6541" d="M14.062,10.125A2.063,2.063,0,1,0,12,8.063,2.06,2.06,0,0,0,14.062,10.125Zm0,6.188A2.063,2.063,0,1,0,12,14.25,2.06,2.06,0,0,0,14.062,16.313Zm2.063,4.125a2.063,2.063,0,1,1-2.063-2.062A2.06,2.06,0,0,1,16.125,20.438Zm4.813-10.312a2.063,2.063,0,1,0-2.062-2.062A2.06,2.06,0,0,0,20.938,10.125ZM23,14.25a2.063,2.063,0,1,1-2.062-2.062A2.06,2.06,0,0,1,23,14.25ZM20.938,22.5a2.063,2.063,0,1,0-2.062-2.062A2.06,2.06,0,0,0,20.938,22.5Z" transform="translate(-6.5 -3.25)" fill="#a1a1a1"/>
  <path id="Path_6542" data-name="Path 6542" d="M0,0H22V22H0Z" fill="none"/>
</svg>
