<svg xmlns="http://www.w3.org/2000/svg" width="18.885" height="22" viewBox="0 0 18.885 22">
  <g id="Form_Set_up_active" data-name="Form Set up active" transform="translate(-3.5 -2)">
    <g id="Paper" transform="translate(3.5 2)">
      <path id="Path_6525" data-name="Path 6525" d="M10.834,0a.5.5,0,0,1,.506.506h0V4.048a3.7,3.7,0,0,0,3.674,3.674c.836,0,1.5.011,2,.011H17.2c.338,0,.793-.01,1.188-.01a.493.493,0,0,1,.495.5h0v8.844A4.938,4.938,0,0,1,13.946,22H5.191A5.192,5.192,0,0,1,0,16.819H0V4.961A4.969,4.969,0,0,1,4.96,0h5.873ZM12.01,14.19H6.027A.822.822,0,0,0,5.2,15a.831.831,0,0,0,.825.825H12.01A.831.831,0,0,0,12.835,15a.822.822,0,0,0-.825-.814ZM9.745,8.69H6.027a.831.831,0,0,0-.825.825.822.822,0,0,0,.825.814H9.745a.822.822,0,0,0,.825-.814.831.831,0,0,0-.825-.825ZM12.942,1a.526.526,0,0,1,.9-.367l4.428,4.606a.524.524,0,0,1-.377.888c-.9,0-1.97,0-2.736-.008A2.23,2.23,0,0,1,12.942,3.9h0Z" transform="translate(0)" fill="#e3cddb"/>
    </g>
  </g>
</svg>
