<svg xmlns="http://www.w3.org/2000/svg" width="23" height="23" viewBox="0 0 23 23">
  <g id="Item_edit" data-name="Item edit" transform="translate(-2 -2)">
    <g id="Edit-Square" transform="translate(2 2)">
      <path id="Fill-1" d="M16.864,22.988H6.135a6.144,6.144,0,0,1-4.526-1.6,6.147,6.147,0,0,1-1.6-4.526V6.135a6.147,6.147,0,0,1,1.6-4.526A6.149,6.149,0,0,1,6.135.012H16.864a6.139,6.139,0,0,1,4.523,1.6,6.178,6.178,0,0,1,1.6,4.527v10.73a6.152,6.152,0,0,1-1.6,4.526,6.149,6.149,0,0,1-4.528,1.6" transform="translate(0 0)" fill="#77003f" opacity="0.2"/>
      <path id="Fill-4" d="M16.638,8.982,9.1,16.555a2.069,2.069,0,0,1-1.444.595H5.026a.533.533,0,0,1-.381-.157.525.525,0,0,1-.146-.381l.067-2.659a2.022,2.022,0,0,1,.593-1.391L10.5,7.21a.243.243,0,0,1,.336,0l1.873,1.866a.707.707,0,0,0,.493.2.739.739,0,0,0,.739-.74.761.761,0,0,0-.2-.516C13.707,7.976,11.924,6.2,11.924,6.2a.3.3,0,0,1,0-.415l.75-.763a1.768,1.768,0,0,1,2.508,0L16.638,6.48a1.783,1.783,0,0,1,0,2.5" transform="translate(0.675 0.675)" fill="#77003f"/>
    </g>
  </g>
</svg>
