<svg xmlns="http://www.w3.org/2000/svg" width="23" height="23" viewBox="0 0 23 23">
  <g id="Item_delete" data-name="Item delete" transform="translate(-2 -2)">
    <g id="Edit-Square" transform="translate(2 2)">
      <path id="Fill-1" d="M16.864,22.988H6.135a6.144,6.144,0,0,1-4.526-1.6,6.147,6.147,0,0,1-1.6-4.526V6.135a6.147,6.147,0,0,1,1.6-4.526A6.149,6.149,0,0,1,6.135.012H16.864a6.139,6.139,0,0,1,4.523,1.6,6.178,6.178,0,0,1,1.6,4.527v10.73a6.152,6.152,0,0,1-1.6,4.526,6.149,6.149,0,0,1-4.528,1.6" transform="translate(0 0)" fill="#700" opacity="0.2"/>
      <g id="Iconly_Bold_Delete" data-name="Iconly/Bold/Delete" transform="translate(2.26 2.81)">
        <g id="Delete" transform="translate(3 2)">
          <path id="Path_6548" data-name="Path 6548" d="M10.36,4.353a.472.472,0,0,1,.34.152.485.485,0,0,1,.118.363c0,.044-.346,4.425-.544,6.269a1.9,1.9,0,0,1-1.948,1.838c-.841.019-1.664.025-2.474.025-.86,0-1.7-.007-2.517-.025a1.9,1.9,0,0,1-1.905-1.838c-.2-1.85-.544-6.225-.55-6.269A.514.514,0,0,1,1,4.505a.459.459,0,0,1,.34-.152ZM7.192,0A1.291,1.291,0,0,1,8.429.973h0l.106.474a.832.832,0,0,0,.807.66h1.9a.47.47,0,0,1,.463.477h0v.247a.474.474,0,0,1-.463.477H.464A.474.474,0,0,1,0,2.832H0V2.585a.47.47,0,0,1,.464-.477h1.9a.834.834,0,0,0,.807-.66h0L3.265,1A1.292,1.292,0,0,1,4.508,0H7.192Z" transform="translate(0 0)" fill="#c40000"/>
        </g>
      </g>
    </g>
  </g>
</svg>
