<svg xmlns="http://www.w3.org/2000/svg" width="11.2" height="16" viewBox="0 0 11.2 16">
  <g id="Location" transform="translate(-5 -2)">
    <g id="Location-2" data-name="Location" transform="translate(5 2)">
      <path id="Path_34175" d="M2.825.749A5.512,5.512,0,0,1,8.453.8,5.864,5.864,0,0,1,11.2,5.809a8.446,8.446,0,0,1-2.554,5.42,14.982,14.982,0,0,1-2.687,2.256.939.939,0,0,1-.326.115.656.656,0,0,1-.313-.095A14.812,14.812,0,0,1,1.45,9.867,7.423,7.423,0,0,1,0,5.708H0l0-.219A5.72,5.72,0,0,1,2.825.749Zm3.5,3.278a1.877,1.877,0,0,0-2.075.416,1.964,1.964,0,0,0-.415,2.112,1.9,1.9,0,0,0,1.758,1.2A1.871,1.871,0,0,0,6.94,7.192a1.964,1.964,0,0,0-.614-3.165Z" transform="translate(0 0)" fill="#811750"/>
      <ellipse id="Ellipse_743" cx="4" cy="0.8" rx="4" ry="0.8" transform="translate(1.6 14.4)" fill="#811750" opacity="0.4"/>
    </g>
  </g>
</svg>
