<svg xmlns="http://www.w3.org/2000/svg" width="20.099" height="13" viewBox="0 0 20.099 13">
  <g id="Group_9074" data-name="Group 9074" transform="translate(0 -2)">
    <circle id="Ellipse_21" data-name="Ellipse 21" cx="4.5" cy="4.5" r="4.5" transform="translate(5.5 6)" fill="#d4a4b1"/>
    <path id="Path_6540" data-name="Path 6540" d="M3.556,13.583A9.065,9.065,0,0,1,12.319,6.3a9.064,9.064,0,0,1,8.763,7.283.65.65,0,0,0,1.273-.265A10.365,10.365,0,0,0,12.319,5,10.364,10.364,0,0,0,2.283,13.317a.65.65,0,1,0,1.273.265ZM12.319,8.9a4.55,4.55,0,1,0,4.55,4.55A4.55,4.55,0,0,0,12.319,8.9Zm-3.25,4.55a3.25,3.25,0,1,1,3.25,3.25A3.25,3.25,0,0,1,9.069,13.45Z" transform="translate(-2.27 -3)" fill="#7b2854"/>
  </g>
</svg>
